<svg data-v-fde0c5aa="" xmlns="http://www.w3.org/2000/svg" viewBox="0 0 300 300" class="iconLeftSlogan"><!----><defs data-v-fde0c5aa=""><!----></defs><rect data-v-fde0c5aa="" fill="orangered" x="0" y="0" width="300px" height="300px" class="logo-background-square"></rect><defs data-v-fde0c5aa=""><!----></defs><g data-v-fde0c5aa="" id="78808d96-33c8-4c1d-90c6-1f97c3e436e0" fill="#ffffff" transform="matrix(1.5577541637811736,0,0,1.5577541637811736,82.86777119153763,121.17454012848584)"><path d="M4.52 15.64L4.52 15.64Q2.87 15.64 1.75 14.38Q0.63 13.12 0.63 10.71L0.63 10.71Q0.63 8.02 2.02 6.13L2.02 6.13Q2.70 5.22 3.77 4.68Q4.84 4.14 6.25 4.14Q7.66 4.14 8.39 4.89Q9.13 5.64 9.13 6.66Q9.13 7.67 8.57 8.31Q8.01 8.95 7.11 8.95L7.11 8.95Q6.80 8.95 6.40 8.83L6.40 8.83Q6.69 8.47 6.92 7.80Q7.14 7.13 7.14 6.52Q7.14 5.92 6.86 5.54Q6.58 5.17 5.98 5.17L5.98 5.17Q5.05 5.17 4.31 6.02Q3.57 6.87 3.21 8.12Q2.84 9.37 2.84 10.70L2.84 10.70Q2.84 12.49 3.54 13.41Q4.24 14.34 5.33 14.34L5.33 14.34Q6.02 14.34 6.76 13.87Q7.50 13.41 8.18 12.56L8.18 12.56Q8.69 12.67 8.69 13.08L8.69 13.08Q8.16 14.04 7.39 14.64Q6.62 15.25 5.94 15.44Q5.25 15.64 4.52 15.64ZM12.22 12.78L12.22 12.78Q12.22 13.44 12.47 13.85Q12.71 14.27 13.16 14.27L13.16 14.27Q13.82 14.27 14.41 13.50Q15.01 12.73 15.37 11.52Q15.72 10.32 15.72 9.23Q15.72 8.15 15.64 7.48L15.64 7.48Q16.06 7.45 16.23 7.45L16.23 7.45Q16.94 7.45 17.30 7.71Q17.67 7.98 17.67 8.67L17.67 8.67Q17.67 8.93 17.33 10.83Q17.00 12.73 17.00 13.87Q17.00 15.01 17.43 15.89L17.43 15.89Q16.38 15.71 15.89 15.11Q15.40 14.52 15.40 13.40L15.40 13.40Q15.40 13.20 15.46 12.64L15.46 12.64Q15.08 13.97 14.11 14.78Q13.15 15.60 12.21 15.60Q11.28 15.60 10.72 14.90Q10.15 14.21 10.15 12.94Q10.15 11.66 10.61 10.46Q11.06 9.27 11.97 8.44Q12.88 7.60 14 7.60L14 7.60Q14.64 7.60 15.32 7.91L15.32 7.91Q13.90 8.41 13.06 9.89Q12.22 11.37 12.22 12.78ZM25.54 13.94L25.54 13.94Q25.54 14.64 25.62 15.43L25.62 15.43Q25.17 15.46 25.03 15.46L25.03 15.46Q24.25 15.46 23.90 15.18Q23.55 14.91 23.55 14.38Q23.55 13.85 23.85 12.19Q24.15 10.53 24.15 9.67Q24.15 8.81 23.59 8.81L23.59 8.81Q23.28 8.81 22.92 9.18Q22.55 9.55 22.23 10.19Q21.91 10.82 21.69 11.82Q21.48 12.81 21.48 13.73Q21.48 14.64 21.56 15.43L21.56 15.43Q21.11 15.46 20.97 15.46L20.97 15.46Q20.19 15.46 19.84 15.18Q19.49 14.91 19.49 14.27L19.49 14.27Q19.49 14.11 19.78 12.18Q20.06 10.25 20.06 9.12Q20.06 7.99 19.82 7.06L19.82 7.06Q20.86 7.38 21.27 7.98Q21.67 8.58 21.67 9.46L21.67 9.46Q21.67 9.91 21.57 10.60L21.57 10.60Q22.05 9.20 22.90 8.27Q23.74 7.35 24.54 7.35Q25.33 7.35 25.68 7.94Q26.04 8.53 26.04 9.63L26.04 9.63Q26.57 8.61 27.26 7.98Q27.94 7.35 28.52 7.35L28.52 7.35Q29.37 7.35 29.73 7.86Q30.09 8.37 30.09 9.25Q30.09 10.12 29.81 11.70Q29.54 13.29 29.54 14.01Q29.54 14.73 29.72 15.06Q29.90 15.39 30.34 15.62L30.34 15.62Q30.16 15.64 29.82 15.64L29.82 15.64Q28.64 15.64 28.15 15.27Q27.65 14.91 27.65 14L27.65 14Q27.65 13.48 27.93 11.98Q28.21 10.47 28.21 9.73L28.21 9.73Q28.21 8.81 27.65 8.81L27.65 8.81Q27.23 8.81 26.75 9.42Q26.26 10.02 25.90 11.25Q25.54 12.47 25.54 13.94ZM35.67 8.36Q36.55 7.69 37.42 7.69Q38.29 7.69 38.86 8.38Q39.42 9.07 39.42 10.39L39.42 10.39Q39.42 12.49 38.28 13.96Q37.13 15.43 35.52 15.43L35.52 15.43Q34.94 15.43 34.36 15.20L34.36 15.20Q35.73 14.88 36.54 13.43Q37.35 11.97 37.35 10.53L37.35 10.53Q37.35 9.86 37.11 9.44Q36.86 9.02 36.41 9.02L36.41 9.02Q35.56 9.02 34.90 10.05Q34.24 11.09 33.89 12.89Q33.54 14.69 33.54 16.64Q33.54 18.59 33.82 20.03L33.82 20.03Q32.68 19.99 32.12 19.66Q31.57 19.33 31.57 18.41L31.57 18.41Q31.57 18.07 32.00 14.86Q32.42 11.65 32.42 9.91Q32.42 8.18 32.21 6.99L32.21 6.99Q33.33 7.27 33.76 8.02Q34.19 8.78 34.19 10.23L34.19 10.23Q34.78 9.03 35.67 8.36ZM46.21 7.32L46.21 7.32Q46.94 7.32 47.32 7.59Q47.70 7.85 47.70 8.57L47.70 8.57Q47.70 8.79 47.43 10.54Q47.17 12.28 47.17 13.52Q47.17 14.77 47.43 15.72L47.43 15.72Q46.38 15.39 45.98 14.77Q45.57 14.15 45.57 13.24L45.57 13.24Q45.57 12.89 45.72 11.66L45.72 11.66Q45.29 13.26 44.40 14.34Q43.51 15.43 42.73 15.43L42.73 15.43Q41.12 15.43 41.12 13.10L41.12 13.10Q41.12 12.33 41.35 10.96Q41.58 9.58 41.58 8.86Q41.58 8.15 41.38 7.42L41.38 7.42Q42.55 7.42 43.07 7.72Q43.60 8.02 43.60 8.92L43.60 8.92Q43.60 9.39 43.30 10.81Q43.01 12.22 43.01 12.94L43.01 12.94Q43.01 13.97 43.57 13.97L43.57 13.97Q43.85 13.97 44.21 13.59Q44.58 13.20 44.91 12.57Q45.25 11.93 45.48 10.97Q45.71 10.01 45.71 9.02Q45.71 8.04 45.63 7.35L45.63 7.35Q46.05 7.32 46.21 7.32ZM52.58 8.18Q52.19 8.18 51.88 8.44Q51.58 8.69 51.58 9.17Q51.58 9.65 51.91 10.07Q52.23 10.49 52.71 10.80Q53.19 11.12 53.67 11.45Q54.15 11.77 54.52 12.26Q54.88 12.74 54.92 13.33L54.92 13.33Q54.92 14.34 54.05 15.02Q53.19 15.71 51.90 15.71Q50.61 15.71 49.88 15.19Q49.14 14.67 49.14 14Q49.14 13.33 49.55 12.92Q49.97 12.50 50.58 12.50L50.58 12.50Q50.90 12.50 51.18 12.61L51.18 12.61Q50.74 13.09 50.74 13.62Q50.74 14.15 51.03 14.48Q51.32 14.80 51.83 14.80Q52.33 14.80 52.68 14.54Q53.02 14.28 53.02 13.87Q53.02 13.45 52.78 13.13Q52.54 12.81 52.19 12.57Q51.83 12.32 51.41 12.01Q50.99 11.70 50.63 11.39Q50.27 11.07 50.04 10.59Q49.80 10.11 49.80 9.53L49.80 9.53Q49.80 8.54 50.62 7.90Q51.44 7.27 52.66 7.27Q53.89 7.27 54.45 7.74Q55.02 8.22 55.02 8.86Q55.02 9.49 54.62 9.94Q54.22 10.39 53.59 10.39L53.59 10.39Q53.28 10.39 52.89 10.26L52.89 10.26Q53.20 10.00 53.37 9.65Q53.54 9.31 53.54 8.97Q53.54 8.64 53.26 8.41Q52.98 8.18 52.58 8.18ZM66.02 10.75L66.02 10.75L64.68 10.74Q64.06 10.74 63.74 10.75L63.74 10.75Q63.53 12.61 63.52 13.94L63.52 13.94Q66.81 13.94 68.40 13.41L68.40 13.41Q68.28 14.45 67.77 15.02Q67.27 15.60 66.51 15.60L66.51 15.60Q66.29 15.60 65.26 15.48Q64.23 15.36 63.08 15.36Q61.94 15.36 60.84 15.60L60.84 15.60Q61.00 14.94 61.52 14.52L61.52 14.52L61.52 14.46Q61.52 13.71 61.91 11.02L61.91 11.02Q61.56 11.14 61.31 11.24L61.31 11.24Q61.28 10.93 61.28 10.78L61.28 10.78Q61.28 9.84 62.10 9.59L62.10 9.59Q62.36 7.74 62.44 6.26L62.44 6.26Q61.92 6.23 61.78 6.02Q61.64 5.81 61.64 5.19L61.64 5.19Q61.68 4.56 61.75 4.37L61.75 4.37Q63.32 4.58 65.22 4.58Q67.12 4.58 68.88 4.24L68.88 4.24Q68.68 5.71 67.09 6.01L67.09 6.01Q66.15 6.19 64.30 6.24L64.30 6.24Q64.29 6.40 63.90 9.49L63.90 9.49Q64.74 9.52 65.06 9.52L65.06 9.52Q66.39 9.52 66.95 9.06L66.95 9.06Q66.98 9.34 66.98 9.48L66.98 9.48Q66.98 10.75 66.02 10.75ZM75.40 15.85L75.40 15.85Q74.42 15.85 73.72 15.00Q73.01 14.15 72.39 12.63L72.39 12.63Q71.16 14.14 70.60 16.02L70.60 16.02Q69.55 15.15 69.55 14.48L69.55 14.48Q69.55 13.99 70.16 13.27Q70.77 12.54 71.95 11.45L71.95 11.45Q71.05 9.03 70.72 8.45Q70.39 7.87 70.18 7.59L70.18 7.59Q70.88 7.22 71.46 7.22L71.46 7.22Q71.92 7.22 72.21 7.62L72.21 7.62Q72.56 8.05 72.74 8.55Q72.93 9.04 73.02 9.33Q73.11 9.62 73.29 10.18L73.29 10.18Q75.29 8.22 75.50 7.10L75.50 7.10Q76.33 7.80 76.33 8.32L76.33 8.32Q76.33 8.68 76.08 9.06Q75.82 9.44 75.54 9.70Q75.26 9.95 74.63 10.48Q73.99 11.00 73.65 11.31L73.65 11.31Q74.14 12.67 74.97 13.96Q75.80 15.25 76.30 15.72L76.30 15.72Q75.80 15.85 75.40 15.85ZM81.49 8.36Q82.38 7.69 83.24 7.69Q84.11 7.69 84.68 8.38Q85.25 9.07 85.25 10.39L85.25 10.39Q85.25 12.49 84.10 13.96Q82.95 15.43 81.34 15.43L81.34 15.43Q80.77 15.43 80.18 15.20L80.18 15.20Q81.55 14.88 82.36 13.43Q83.17 11.97 83.17 10.53L83.17 10.53Q83.17 9.86 82.93 9.44Q82.68 9.02 82.24 9.02L82.24 9.02Q81.38 9.02 80.72 10.05Q80.07 11.09 79.72 12.89Q79.37 14.69 79.37 16.64Q79.37 18.59 79.65 20.03L79.65 20.03Q78.50 19.99 77.94 19.66Q77.39 19.33 77.39 18.41L77.39 18.41Q77.39 18.07 77.82 14.86Q78.25 11.65 78.25 9.91Q78.25 8.18 78.04 6.99L78.04 6.99Q79.16 7.27 79.58 8.02Q80.01 8.78 80.01 10.23L80.01 10.23Q80.60 9.03 81.49 8.36ZM88.98 10.88Q89.49 9.06 90.19 8.20Q90.90 7.34 91.51 7.34Q92.12 7.34 92.43 7.79Q92.74 8.25 92.74 8.97Q92.74 9.69 92.31 10.29Q91.88 10.89 91.14 10.89L91.14 10.89Q90.94 10.89 90.68 10.78L90.68 10.78Q91.11 10.23 91.11 9.46L91.11 9.46Q91.11 9.02 90.75 9.02L90.75 9.02Q90.48 9.02 90.17 9.39Q89.87 9.76 89.59 10.41Q89.31 11.06 89.12 12.08Q88.93 13.09 88.93 14.24L88.93 14.24Q88.93 14.38 89.00 15.43L89.00 15.43Q88.55 15.46 88.42 15.46L88.42 15.46Q87.63 15.46 87.28 15.18Q86.93 14.90 86.93 14.25L86.93 14.25Q86.93 13.97 87.22 12.10Q87.51 10.22 87.51 9.11Q87.51 7.99 87.28 7.06L87.28 7.06Q88.30 7.38 88.70 7.97Q89.11 8.57 89.11 9.36Q89.11 10.15 88.98 10.88L88.98 10.88ZM96.50 11.98L96.50 11.98Q95.83 11.98 95.19 11.83L95.19 11.83Q95.17 11.97 95.17 12.26L95.17 12.26Q95.17 13.43 95.61 14.01Q96.04 14.60 96.64 14.60Q97.24 14.60 97.79 14.24Q98.34 13.87 98.74 13.23L98.74 13.23Q99.25 13.34 99.25 13.75L99.25 13.75Q98.01 15.64 96.07 15.64L96.07 15.64Q94.89 15.64 94.01 14.74Q93.13 13.83 93.13 12.22L93.13 12.22Q93.13 11.02 93.59 9.93Q94.05 8.85 95.06 8.10Q96.07 7.35 97.29 7.35Q98.52 7.35 99.09 7.91Q99.67 8.47 99.67 9.38L99.67 9.38Q99.67 10.70 98.75 11.34Q97.83 11.98 96.50 11.98ZM97.09 8.22L97.09 8.22Q96.38 8.22 95.89 9.10Q95.40 9.98 95.24 11.24L95.24 11.24L95.45 11.24Q96.67 11.24 97.25 10.61Q97.83 9.98 97.83 9.10L97.83 9.10Q97.83 8.74 97.64 8.48Q97.45 8.22 97.09 8.22ZM104.24 8.18Q103.85 8.18 103.54 8.44Q103.24 8.69 103.24 9.17Q103.24 9.65 103.56 10.07Q103.89 10.49 104.37 10.80Q104.85 11.12 105.33 11.45Q105.81 11.77 106.18 12.26Q106.54 12.74 106.58 13.33L106.58 13.33Q106.58 14.34 105.71 15.02Q104.85 15.71 103.56 15.71Q102.27 15.71 101.53 15.19Q100.80 14.67 100.80 14Q100.80 13.33 101.21 12.92Q101.63 12.50 102.24 12.50L102.24 12.50Q102.56 12.50 102.84 12.61L102.84 12.61Q102.40 13.09 102.40 13.62Q102.40 14.15 102.69 14.48Q102.98 14.80 103.49 14.80Q103.99 14.80 104.34 14.54Q104.68 14.28 104.68 13.87Q104.68 13.45 104.44 13.13Q104.20 12.81 103.84 12.57Q103.49 12.32 103.07 12.01Q102.65 11.70 102.29 11.39Q101.93 11.07 101.70 10.59Q101.46 10.11 101.46 9.53L101.46 9.53Q101.46 8.54 102.28 7.90Q103.10 7.27 104.32 7.27Q105.55 7.27 106.11 7.74Q106.68 8.22 106.68 8.86Q106.68 9.49 106.28 9.94Q105.88 10.39 105.25 10.39L105.25 10.39Q104.94 10.39 104.55 10.26L104.55 10.26Q104.86 10.00 105.03 9.65Q105.20 9.31 105.20 8.97Q105.20 8.64 104.92 8.41Q104.64 8.18 104.24 8.18ZM111.27 8.18Q110.88 8.18 110.57 8.44Q110.26 8.69 110.26 9.17Q110.26 9.65 110.59 10.07Q110.92 10.49 111.40 10.80Q111.87 11.12 112.36 11.45Q112.84 11.77 113.20 12.26Q113.57 12.74 113.61 13.33L113.61 13.33Q113.61 14.34 112.74 15.02Q111.87 15.71 110.59 15.71Q109.30 15.71 108.56 15.19Q107.83 14.67 107.83 14Q107.83 13.33 108.24 12.92Q108.65 12.50 109.27 12.50L109.27 12.50Q109.59 12.50 109.87 12.61L109.87 12.61Q109.42 13.09 109.42 13.62Q109.42 14.15 109.72 14.48Q110.01 14.80 110.52 14.80Q111.02 14.80 111.36 14.54Q111.71 14.28 111.71 13.87Q111.71 13.45 111.47 13.13Q111.23 12.81 110.87 12.57Q110.52 12.32 110.10 12.01Q109.68 11.70 109.32 11.39Q108.96 11.07 108.72 10.59Q108.49 10.11 108.49 9.53L108.49 9.53Q108.49 8.54 109.31 7.90Q110.12 7.27 111.35 7.27Q112.57 7.27 113.14 7.74Q113.71 8.22 113.71 8.86Q113.71 9.49 113.31 9.94Q112.91 10.39 112.28 10.39L112.28 10.39Q111.97 10.39 111.58 10.26L111.58 10.26Q111.89 10.00 112.06 9.65Q112.22 9.31 112.22 8.97Q112.22 8.64 111.94 8.41Q111.66 8.18 111.27 8.18Z"></path></g><defs data-v-fde0c5aa=""><!----></defs><g data-v-fde0c5aa="" id="fcb33025-6bbb-42ab-9822-22fb22d5451a" stroke="none" fill="#FFFFFF" transform="matrix(0.46091666890954885,0,0,0.46091666890954885,32.394874962992446,126.97721379457407)"><switch><g><path d="M49.9 2.5c-18.4 0-33.4 15-33.4 33.4 0 25.7 22.6 51.8 30.6 60.3 1.5 1.6 4.1 1.6 5.6 0C60.6 88 82.3 63 83.4 37.9 84.2 19 68.9 2.5 49.9 2.5zm.1 57.4c-13.2 0-23.9-10.7-23.9-23.9 0-13.3 10.7-24 23.9-24s23.9 10.7 23.9 23.9c0 13.3-10.7 24-23.9 24z"></path><path d="M52.2 41.6c-.7.3-1.4.4-2.2.4-.8 0-1.5-.1-2.2-.4L39 38.1c-.7 1.4-1 3-1 4.6V44c0 .6.3 1 .8 1.3l10 4c.7.3 1.5.3 2.3 0l10-4c.6-.3.9-.7.9-1.3v-1.2c0-1.7-.4-3.2-1-4.6l-8.8 3.4z"></path><path d="M48.7 23.7l-17.4 6.9c-.6.3-.6 1.2 0 1.4l17.4 6.9c.9.3 1.8.3 2.7 0l13.9-5.5v3.5h-.2c-.3 0-.5.2-.5.5v.5c0 .2.2.4.4.5l-.9 1.9c-.2.5.1 1 .6 1h2.8c.5 0 .9-.6.6-1l-.9-1.9c.2 0 .4-.2.4-.5v-.5c0-.3-.2-.5-.5-.5h-.2v-4.2l1.7-.7c.6-.3.6-1.2 0-1.4l-17.4-6.9c-.7-.3-1.7-.3-2.5 0z"></path></g></switch></g><defs data-v-fde0c5aa=""><!----></defs><g data-v-fde0c5aa="" id="5372c20f-966e-4734-ac75-9b5f6afe7332" fill="#ffffff" transform="matrix(0.277520913007166,0,0,0.277520913007166,83.34684347062873,161.2385221245798)"><path d="M10.93 7.46L10.93 7.46Q10.93 8.13 10.63 8.73Q10.33 9.32 9.80 9.79Q9.27 10.26 8.55 10.58Q7.84 10.91 7 11.02L7 11.02Q7.21 11.65 7.51 12.31Q7.81 12.98 8.16 13.59Q8.51 14.21 8.89 14.73Q9.27 15.25 9.63 15.58L9.63 15.58Q9.56 15.72 9.43 15.86Q9.30 16.00 9.12 16.12Q8.95 16.24 8.76 16.32Q8.57 16.39 8.40 16.39L8.40 16.39Q8.09 16.39 7.81 16.10Q7.53 15.81 7.25 15.17Q6.96 14.53 6.64 13.52Q6.33 12.50 5.95 11.07L5.95 11.07Q5.80 11.07 5.64 11.07Q5.49 11.07 5.40 11.05L5.40 11.05Q5.31 10.99 5.19 10.85L5.19 10.85Q4.82 11.66 4.52 12.38Q4.23 13.09 4.00 13.76Q3.77 14.42 3.59 15.04Q3.42 15.67 3.29 16.31L3.29 16.31Q2.81 16.20 2.46 15.90Q2.11 15.61 1.81 15.08L1.81 15.08Q1.86 14.95 1.93 14.83Q1.99 14.71 2.09 14.50Q2.18 14.28 2.33 13.94Q2.48 13.61 2.72 13.05Q2.97 12.49 3.31 11.68Q3.65 10.86 4.14 9.70L4.14 9.70Q4.37 9.18 4.53 8.79Q4.69 8.40 4.82 8.04Q4.94 7.69 5.05 7.33Q5.15 6.97 5.26 6.51L5.26 6.51Q4.62 6.73 4.07 7.01Q3.51 7.28 3.15 7.59L3.15 7.59Q3.02 7.50 2.89 7.34Q2.76 7.17 2.65 6.96Q2.53 6.76 2.45 6.55Q2.37 6.34 2.35 6.17L2.35 6.17Q2.77 5.89 3.38 5.66Q3.99 5.42 4.68 5.24Q5.36 5.07 6.08 4.97Q6.79 4.87 7.41 4.87L7.41 4.87Q9.09 4.87 10.01 5.56Q10.93 6.26 10.93 7.46ZM7.35 6.02L7.52 6.29Q7.42 6.41 7.21 6.79Q7 7.17 6.73 7.69Q6.45 8.22 6.15 8.83Q5.85 9.45 5.57 10.05L5.57 10.05Q6.62 10.05 7.50 9.86Q8.39 9.66 9.03 9.30Q9.67 8.95 10.03 8.46Q10.39 7.98 10.39 7.39L10.39 7.39Q10.39 6.69 9.88 6.32Q9.38 5.95 8.33 5.95L8.33 5.95Q8.09 5.95 7.85 5.97Q7.62 5.99 7.35 6.02L7.35 6.02ZM23.76 9.21L23.76 9.21Q24.22 9.21 24.48 9.46Q24.74 9.72 24.74 10.16L24.74 10.16Q24.74 10.28 24.72 10.39Q24.70 10.51 24.67 10.60L24.67 10.60Q24.49 10.57 24.26 10.55Q24.04 10.53 23.73 10.53L23.73 10.53Q23.13 10.53 22.51 10.63Q21.90 10.74 21.34 10.81L21.34 10.81Q21.01 11.55 20.75 12.24Q20.48 12.94 20.29 13.51Q20.10 14.08 20.00 14.50Q19.89 14.92 19.88 15.13L19.88 15.13Q21.01 14.90 22.17 14.73Q23.32 14.56 24.60 14.48L24.60 14.48Q24.75 14.71 24.86 14.99Q24.96 15.27 24.96 15.60L24.96 15.60Q24.96 15.68 24.96 15.78Q24.96 15.88 24.93 15.97L24.93 15.97Q24.54 15.96 24.11 15.95Q23.67 15.95 22.97 15.95L22.97 15.95Q22.51 15.95 22.10 15.97Q21.69 15.99 21.27 16.03Q20.85 16.07 20.38 16.14Q19.91 16.21 19.32 16.31L19.32 16.31Q18.68 16.06 18.07 15.08L18.07 15.08Q18.31 14.57 18.74 13.54Q19.17 12.52 19.82 10.79L19.82 10.79Q19.19 10.60 19.00 10.09L19.00 10.09Q19.07 10.02 19.40 9.92Q19.74 9.81 20.23 9.70L20.23 9.70Q20.44 9.16 20.59 8.75Q20.73 8.34 20.85 7.99Q20.96 7.63 21.05 7.29Q21.14 6.94 21.22 6.54L21.22 6.54Q20.73 6.51 20.45 6.27Q20.17 6.02 20.17 5.63L20.17 5.63Q20.17 5.52 20.21 5.36Q20.24 5.21 20.29 5.10L20.29 5.10Q20.57 5.14 20.82 5.15Q21.08 5.17 21.50 5.17L21.50 5.17Q22.39 5.17 23.16 5.12Q23.93 5.07 24.55 5.01Q25.17 4.96 25.62 4.91Q26.07 4.86 26.31 4.86L26.31 4.86Q26.63 4.86 26.88 5.19Q27.13 5.53 27.26 6.15L27.26 6.15Q26.82 6.10 26.55 6.09Q26.28 6.08 26.07 6.08L26.07 6.08Q25.30 6.08 24.66 6.15Q24.02 6.23 23.44 6.31L23.44 6.31Q23.35 6.44 23.25 6.64Q23.14 6.83 22.97 7.18Q22.81 7.53 22.56 8.06Q22.32 8.60 21.97 9.39L21.97 9.39Q22.50 9.31 22.97 9.26Q23.44 9.21 23.76 9.21ZM38.71 14.38L38.71 14.38Q39.06 14.98 39.06 15.54L39.06 15.54Q39.06 15.67 39.04 15.77Q39.02 15.88 38.99 15.99L38.99 15.99Q38.75 15.96 38.49 15.95Q38.23 15.93 37.95 15.93L37.95 15.93Q37.62 15.93 37.27 15.95Q36.93 15.97 36.51 16.02Q36.09 16.06 35.57 16.13Q35.06 16.20 34.37 16.31L34.37 16.31Q34.05 16.20 33.73 15.87Q33.40 15.54 33.12 15.08L33.12 15.08Q33.26 14.77 33.47 14.31Q33.68 13.86 33.96 13.21Q34.24 12.56 34.59 11.68Q34.93 10.81 35.32 9.66L35.32 9.66Q35.57 8.90 35.76 8.33Q35.94 7.76 36.08 7.22Q36.23 6.68 36.37 6.09Q36.51 5.50 36.68 4.73L36.68 4.73Q37.24 4.84 37.65 5.14Q38.07 5.45 38.44 6.01L38.44 6.01Q38.33 6.19 38.15 6.59Q37.97 7 37.72 7.58Q37.48 8.16 37.18 8.90Q36.89 9.63 36.57 10.47L36.57 10.47Q36.26 11.30 35.97 12.03Q35.67 12.75 35.44 13.34Q35.21 13.93 35.07 14.35Q34.93 14.77 34.93 14.98L34.93 14.98Q35.15 14.97 35.34 14.95Q35.52 14.94 35.71 14.90Q35.91 14.87 36.14 14.82Q36.37 14.77 36.69 14.69L36.69 14.69Q36.97 14.62 37.21 14.57Q37.45 14.52 37.68 14.48Q37.91 14.45 38.16 14.43Q38.40 14.41 38.71 14.38ZM47.67 14.38L47.67 14.38Q47.67 13.87 47.83 13.07Q47.99 12.26 48.25 11.33Q48.51 10.40 48.85 9.43Q49.18 8.46 49.53 7.60Q49.88 6.75 50.22 6.10Q50.55 5.46 50.82 5.18L50.82 5.18Q50.96 5.19 51.19 5.29Q51.42 5.38 51.66 5.50Q51.90 5.63 52.09 5.78Q52.29 5.92 52.35 6.05L52.35 6.05Q51.94 6.41 51.54 7.15Q51.14 7.88 50.77 8.82Q50.40 9.76 50.08 10.80Q49.76 11.84 49.52 12.82Q49.28 13.80 49.15 14.64Q49.01 15.48 49.01 16.00L49.01 16.00Q49.01 16.24 49.06 16.30L49.06 16.30Q48.75 16.28 48.61 16.19Q48.47 16.10 48.39 16.00Q48.31 15.89 48.25 15.79Q48.19 15.68 48.06 15.62L48.06 15.62Q47.96 15.58 47.89 15.43Q47.82 15.27 47.77 15.09Q47.73 14.90 47.70 14.70Q47.67 14.50 47.67 14.38ZM59.29 16.24L59.29 16.24Q58.62 16.04 58.36 15.85Q58.10 15.65 58.10 15.36L58.10 15.36Q58.10 15.13 58.23 14.73Q58.35 14.32 58.60 13.77Q58.84 13.22 59.18 12.54Q59.53 11.87 59.96 11.10L59.96 11.10Q59.60 11.09 59.31 11.08Q59.02 11.07 58.84 11.07L58.84 11.07Q58.93 10.86 59.32 10.71Q59.71 10.56 60.35 10.44L60.35 10.44Q60.90 9.53 61.52 8.71Q62.15 7.88 62.78 7.19Q63.41 6.50 64.04 5.97Q64.67 5.45 65.24 5.14L65.24 5.14Q65.25 5.04 65.26 4.97Q65.27 4.90 65.27 4.87L65.27 4.87Q65.46 4.87 65.79 4.97Q66.12 5.07 66.44 5.21Q66.75 5.35 67.00 5.49Q67.24 5.64 67.27 5.74L67.27 5.74Q66.81 6.55 66.36 8.17Q65.91 9.79 65.62 12.04L65.62 12.04Q65.55 12.60 65.50 13.31Q65.45 14.03 65.45 14.91L65.45 14.91Q65.45 15.22 65.45 15.54Q65.45 15.86 65.48 16.21L65.48 16.21Q65.45 16.23 65.42 16.23Q65.39 16.23 65.31 16.23L65.31 16.23Q65.11 16.23 64.85 16.16Q64.60 16.10 64.35 16.01Q64.11 15.92 63.93 15.81Q63.76 15.69 63.71 15.61L63.71 15.61Q63.70 15.43 63.70 15.25Q63.70 15.08 63.70 14.88L63.70 14.88Q63.70 14.01 63.76 13.12Q63.83 12.22 63.98 11.27L63.98 11.27Q63.78 11.26 63.46 11.23Q63.14 11.21 62.74 11.20Q62.34 11.19 61.89 11.16Q61.43 11.14 61.00 11.13L61.00 11.13Q60.66 11.76 60.37 12.38Q60.07 13.01 59.86 13.64L59.86 13.64Q59.63 14.31 59.48 14.98Q59.33 15.65 59.29 16.24ZM64.69 7.83L64.69 7.83Q64.75 7.63 64.83 7.29Q64.90 6.94 64.97 6.57L64.97 6.57Q64.62 6.69 64.20 7.03Q63.77 7.36 63.31 7.86Q62.86 8.36 62.39 8.98Q61.92 9.60 61.49 10.30L61.49 10.30Q62.66 10.21 64.16 10.18L64.16 10.18Q64.27 9.59 64.41 9.01Q64.54 8.43 64.69 7.83ZM84.29 7.46L84.29 7.46Q84.29 8.33 83.82 9.01Q83.34 9.69 82.52 10.14L82.52 10.14Q83.05 10.50 83.36 11.03Q83.68 11.55 83.68 12.18L83.68 12.18Q83.68 12.94 83.22 13.67Q82.77 14.41 82.01 14.97Q81.26 15.54 80.29 15.89Q79.32 16.24 78.32 16.24L78.32 16.24Q77.22 16.24 76.41 15.83Q75.59 15.41 75.12 14.66L75.12 14.66Q75.26 14.24 75.49 13.62Q75.73 12.99 76.01 12.30Q76.29 11.61 76.57 10.92Q76.86 10.23 77.11 9.69L77.11 9.69Q77.64 8.50 78.06 7.71Q78.48 6.93 78.83 6.47L78.83 6.47Q78.06 6.71 77.43 7.01Q76.80 7.31 76.51 7.59L76.51 7.59Q76.38 7.50 76.25 7.34Q76.12 7.17 76.00 6.96Q75.88 6.76 75.80 6.55Q75.73 6.34 75.71 6.17L75.71 6.17Q76.08 5.92 76.66 5.69Q77.24 5.46 77.92 5.29Q78.61 5.12 79.33 5.03Q80.05 4.93 80.71 4.93L80.71 4.93Q82.39 4.93 83.34 5.60Q84.29 6.27 84.29 7.46ZM78.96 10.81L78.96 10.81Q78.69 10.68 78.47 10.43L78.47 10.43Q78.15 11.14 77.86 11.83Q77.57 12.52 77.35 13.10Q77.13 13.69 76.99 14.13Q76.85 14.56 76.83 14.76L76.83 14.76Q77.03 14.87 77.30 14.92Q77.57 14.98 77.98 14.98L77.98 14.98Q78.93 14.98 79.80 14.71Q80.67 14.45 81.33 13.99Q81.98 13.54 82.38 12.95Q82.77 12.36 82.77 11.72L82.77 11.72Q82.77 10.79 81.97 10.39L81.97 10.39Q80.88 10.84 79.51 10.84L79.51 10.84Q79.31 10.84 79.20 10.84Q79.10 10.84 78.96 10.81ZM81.68 5.95L81.68 5.95Q81.38 5.95 81.05 5.98Q80.72 6.02 80.36 6.09L80.36 6.09Q80.42 6.15 80.45 6.21Q80.49 6.27 80.51 6.34L80.51 6.34Q80.39 6.51 80.21 6.83Q80.02 7.15 79.80 7.58Q79.58 8.01 79.33 8.53Q79.09 9.04 78.83 9.59L78.83 9.59Q79.07 9.53 79.41 9.50Q79.76 9.46 80.09 9.46L80.09 9.46Q80.28 9.46 80.45 9.48Q80.63 9.49 80.79 9.52L80.79 9.52Q81.47 9.41 82.00 9.19Q82.54 8.97 82.94 8.69Q83.33 8.40 83.54 8.05Q83.75 7.70 83.75 7.31L83.75 7.31Q83.75 6.64 83.22 6.29Q82.68 5.95 81.68 5.95ZM96.92 14.38L96.92 14.38Q97.27 14.98 97.27 15.54L97.27 15.54Q97.27 15.67 97.25 15.77Q97.23 15.88 97.20 15.99L97.20 15.99Q96.96 15.96 96.70 15.95Q96.45 15.93 96.17 15.93L96.17 15.93Q95.83 15.93 95.49 15.95Q95.14 15.97 94.72 16.02Q94.30 16.06 93.79 16.13Q93.27 16.20 92.58 16.31L92.58 16.31Q92.26 16.20 91.94 15.87Q91.62 15.54 91.34 15.08L91.34 15.08Q91.48 14.77 91.69 14.31Q91.90 13.86 92.18 13.21Q92.46 12.56 92.80 11.68Q93.14 10.81 93.53 9.66L93.53 9.66Q93.79 8.90 93.97 8.33Q94.15 7.76 94.30 7.22Q94.44 6.68 94.58 6.09Q94.72 5.50 94.89 4.73L94.89 4.73Q95.45 4.84 95.86 5.14Q96.28 5.45 96.66 6.01L96.66 6.01Q96.54 6.19 96.36 6.59Q96.18 7 95.94 7.58Q95.69 8.16 95.40 8.90Q95.10 9.63 94.78 10.47L94.78 10.47Q94.47 11.30 94.18 12.03Q93.88 12.75 93.65 13.34Q93.42 13.93 93.28 14.35Q93.14 14.77 93.14 14.98L93.14 14.98Q93.37 14.97 93.55 14.95Q93.73 14.94 93.93 14.90Q94.12 14.87 94.35 14.82Q94.58 14.77 94.91 14.69L94.91 14.69Q95.19 14.62 95.42 14.57Q95.66 14.52 95.89 14.48Q96.12 14.45 96.37 14.43Q96.61 14.41 96.92 14.38ZM111.34 9.21L111.34 9.21Q111.80 9.21 112.06 9.46Q112.32 9.72 112.32 10.16L112.32 10.16Q112.32 10.28 112.30 10.39Q112.28 10.51 112.25 10.60L112.25 10.60Q112.07 10.57 111.85 10.55Q111.62 10.53 111.31 10.53L111.31 10.53Q110.71 10.53 110.10 10.63Q109.48 10.74 108.92 10.81L108.92 10.81Q108.60 11.55 108.33 12.24Q108.07 12.94 107.88 13.51Q107.69 14.08 107.58 14.50Q107.48 14.92 107.46 15.13L107.46 15.13Q108.60 14.90 109.75 14.73Q110.91 14.56 112.18 14.48L112.18 14.48Q112.34 14.71 112.44 14.99Q112.55 15.27 112.55 15.60L112.55 15.60Q112.55 15.68 112.55 15.78Q112.55 15.88 112.52 15.97L112.52 15.97Q112.13 15.96 111.69 15.95Q111.26 15.95 110.56 15.95L110.56 15.95Q110.10 15.95 109.68 15.97Q109.27 15.99 108.85 16.03Q108.43 16.07 107.96 16.14Q107.49 16.21 106.90 16.31L106.90 16.31Q106.26 16.06 105.66 15.08L105.66 15.08Q105.90 14.57 106.32 13.54Q106.75 12.52 107.41 10.79L107.41 10.79Q106.78 10.60 106.58 10.09L106.58 10.09Q106.65 10.02 106.99 9.92Q107.32 9.81 107.81 9.70L107.81 9.70Q108.02 9.16 108.17 8.75Q108.32 8.34 108.43 7.99Q108.54 7.63 108.63 7.29Q108.72 6.94 108.81 6.54L108.81 6.54Q108.32 6.51 108.04 6.27Q107.76 6.02 107.76 5.63L107.76 5.63Q107.76 5.52 107.79 5.36Q107.83 5.21 107.87 5.10L107.87 5.10Q108.15 5.14 108.41 5.15Q108.67 5.17 109.09 5.17L109.09 5.17Q109.97 5.17 110.74 5.12Q111.51 5.07 112.13 5.01Q112.76 4.96 113.20 4.91Q113.65 4.86 113.89 4.86L113.89 4.86Q114.21 4.86 114.46 5.19Q114.72 5.53 114.84 6.15L114.84 6.15Q114.41 6.10 114.14 6.09Q113.86 6.08 113.65 6.08L113.65 6.08Q112.88 6.08 112.25 6.15Q111.61 6.23 111.02 6.31L111.02 6.31Q110.94 6.44 110.83 6.64Q110.73 6.83 110.56 7.18Q110.39 7.53 110.14 8.06Q109.90 8.60 109.55 9.39L109.55 9.39Q110.08 9.31 110.55 9.26Q111.02 9.21 111.34 9.21ZM136.88 14.36L136.88 14.36Q136.88 13.78 137.07 12.85Q137.27 11.93 137.59 10.88L137.59 10.88Q136.67 10.95 135.74 11.06Q134.81 11.17 134.12 11.19L134.12 11.19Q133.49 12.66 133.12 13.89Q132.75 15.13 132.54 16.31L132.54 16.31Q132.01 16.18 131.66 15.87Q131.31 15.55 131.01 15.08L131.01 15.08Q131.12 14.85 131.27 14.50Q131.42 14.15 131.62 13.66Q131.82 13.16 132.08 12.50Q132.34 11.83 132.68 10.95L132.68 10.95Q132.22 10.75 132.06 10.40L132.06 10.40Q132.13 10.35 132.38 10.28Q132.62 10.22 132.99 10.15L132.99 10.15L133.17 9.70Q133.46 8.95 133.65 8.43Q133.84 7.91 133.97 7.41Q134.11 6.92 134.22 6.31Q134.34 5.71 134.51 4.79L134.51 4.79Q135.10 4.90 135.58 5.31Q136.07 5.71 136.42 6.29L136.42 6.29Q136.29 6.45 136.11 6.79Q135.93 7.13 135.71 7.59Q135.49 8.06 135.24 8.64Q134.99 9.23 134.69 9.87L134.69 9.87Q135.56 9.76 136.45 9.66Q137.34 9.56 138.03 9.52L138.03 9.52Q138.28 8.79 138.55 8.10Q138.82 7.41 139.09 6.83Q139.36 6.26 139.60 5.82Q139.85 5.39 140.04 5.18L140.04 5.18Q140.18 5.19 140.41 5.29Q140.64 5.38 140.88 5.50Q141.12 5.63 141.32 5.78Q141.51 5.92 141.58 6.05L141.58 6.05Q141.33 6.29 141.08 6.66Q140.83 7.04 140.58 7.53Q140.34 8.02 140.10 8.60Q139.86 9.17 139.65 9.79L139.65 9.79Q139.93 10.04 139.93 10.42L139.93 10.42Q139.93 10.68 139.82 10.91L139.82 10.91Q139.69 10.88 139.57 10.87Q139.44 10.86 139.30 10.85L139.30 10.85Q139.06 11.61 138.87 12.35Q138.67 13.09 138.54 13.76Q138.40 14.43 138.33 14.99Q138.25 15.55 138.25 15.93L138.25 15.93Q138.25 16.07 138.26 16.16Q138.26 16.24 138.28 16.30L138.28 16.30Q137.97 16.28 137.83 16.19Q137.69 16.10 137.62 16.00Q137.55 15.89 137.49 15.79Q137.44 15.68 137.31 15.62L137.31 15.62Q137.21 15.58 137.13 15.43Q137.05 15.27 136.99 15.08Q136.93 14.88 136.91 14.69Q136.88 14.49 136.88 14.36ZM153.24 5.75L153.24 5.75Q152.63 6.58 152.12 7.57Q151.62 8.57 151.26 9.61Q150.91 10.65 150.72 11.67Q150.53 12.68 150.53 13.57L150.53 13.57Q150.53 14.66 150.85 15.15Q151.17 15.64 151.96 15.64L151.96 15.64Q152.87 15.64 153.55 15.00Q154.24 14.36 154.84 13.24L154.84 13.24Q155.23 12.52 155.51 11.65Q155.79 10.78 155.97 9.86Q156.14 8.95 156.23 8.02Q156.31 7.08 156.31 6.23L156.31 6.23Q156.31 5.68 156.30 5.43Q156.28 5.18 156.25 5.03L156.25 5.03Q156.30 5.03 156.46 5.05Q156.63 5.08 156.85 5.12Q157.07 5.17 157.28 5.24Q157.50 5.31 157.65 5.39L157.65 5.39Q157.58 6.45 157.39 7.59Q157.21 8.72 156.90 9.83Q156.59 10.93 156.18 11.96Q155.78 12.98 155.27 13.79L155.27 13.79Q154.53 14.99 153.61 15.67Q152.68 16.35 151.42 16.35L151.42 16.35Q150.14 16.35 149.42 15.60Q148.71 14.85 148.71 13.33L148.71 13.33Q148.71 12.45 148.90 11.33Q149.10 10.22 149.43 9.07Q149.76 7.91 150.19 6.81Q150.63 5.71 151.10 4.84L151.10 4.84Q151.34 4.86 151.66 4.94Q151.98 5.03 152.29 5.16Q152.60 5.29 152.86 5.45Q153.12 5.61 153.24 5.75ZM174.27 7.46L174.27 7.46Q174.27 8.33 173.80 9.01Q173.32 9.69 172.49 10.14L172.49 10.14Q173.03 10.50 173.34 11.03Q173.66 11.55 173.66 12.18L173.66 12.18Q173.66 12.94 173.20 13.67Q172.75 14.41 171.99 14.97Q171.23 15.54 170.27 15.89Q169.30 16.24 168.29 16.24L168.29 16.24Q167.20 16.24 166.38 15.83Q165.56 15.41 165.10 14.66L165.10 14.66Q165.24 14.24 165.47 13.62Q165.70 12.99 165.98 12.30Q166.26 11.61 166.55 10.92Q166.84 10.23 167.09 9.69L167.09 9.69Q167.62 8.50 168.04 7.71Q168.46 6.93 168.81 6.47L168.81 6.47Q168.04 6.71 167.41 7.01Q166.78 7.31 166.49 7.59L166.49 7.59Q166.36 7.50 166.23 7.34Q166.10 7.17 165.98 6.96Q165.86 6.76 165.78 6.55Q165.70 6.34 165.69 6.17L165.69 6.17Q166.05 5.92 166.63 5.69Q167.22 5.46 167.90 5.29Q168.59 5.12 169.31 5.03Q170.03 4.93 170.69 4.93L170.69 4.93Q172.37 4.93 173.32 5.60Q174.27 6.27 174.27 7.46ZM168.94 10.81L168.94 10.81Q168.67 10.68 168.45 10.43L168.45 10.43Q168.13 11.14 167.84 11.83Q167.55 12.52 167.33 13.10Q167.10 13.69 166.96 14.13Q166.82 14.56 166.81 14.76L166.81 14.76Q167.01 14.87 167.28 14.92Q167.55 14.98 167.96 14.98L167.96 14.98Q168.91 14.98 169.78 14.71Q170.65 14.45 171.30 13.99Q171.96 13.54 172.35 12.95Q172.75 12.36 172.75 11.72L172.75 11.72Q172.75 10.79 171.95 10.39L171.95 10.39Q170.86 10.84 169.48 10.84L169.48 10.84Q169.29 10.84 169.18 10.84Q169.08 10.84 168.94 10.81ZM171.65 5.95L171.65 5.95Q171.36 5.95 171.03 5.98Q170.70 6.02 170.34 6.09L170.34 6.09Q170.39 6.15 170.43 6.21Q170.46 6.27 170.49 6.34L170.49 6.34Q170.37 6.51 170.18 6.83Q170.00 7.15 169.78 7.58Q169.55 8.01 169.31 8.53Q169.06 9.04 168.81 9.59L168.81 9.59Q169.05 9.53 169.39 9.50Q169.74 9.46 170.07 9.46L170.07 9.46Q170.25 9.46 170.43 9.48Q170.60 9.49 170.77 9.52L170.77 9.52Q171.44 9.41 171.98 9.19Q172.52 8.97 172.91 8.69Q173.31 8.40 173.52 8.05Q173.73 7.70 173.73 7.31L173.73 7.31Q173.73 6.64 173.19 6.29Q172.66 5.95 171.65 5.95ZM197.89 9.34L197.89 9.34Q198.34 9.34 198.60 9.59Q198.86 9.84 198.86 10.29L198.86 10.29Q198.86 10.40 198.84 10.52Q198.83 10.64 198.79 10.72L198.79 10.72Q198.60 10.70 198.38 10.68Q198.16 10.65 197.85 10.65L197.85 10.65Q197.22 10.65 196.59 10.77Q195.96 10.88 195.38 10.95L195.38 10.95Q194.75 12.43 194.35 13.73Q193.94 15.04 193.72 16.31L193.72 16.31Q193.24 16.20 192.88 15.90Q192.51 15.61 192.19 15.08L192.19 15.08Q192.29 14.85 192.43 14.54Q192.57 14.22 192.77 13.74Q192.96 13.26 193.23 12.56Q193.51 11.87 193.89 10.91L193.89 10.91Q193.30 10.71 193.12 10.22L193.12 10.22Q193.19 10.15 193.51 10.06Q193.83 9.97 194.29 9.86L194.29 9.86Q194.50 9.31 194.66 8.88Q194.81 8.46 194.94 8.07Q195.06 7.69 195.17 7.32Q195.27 6.94 195.36 6.52L195.36 6.52L195.29 6.52Q194.75 6.52 194.42 6.27Q194.10 6.02 194.10 5.61L194.10 5.61Q194.10 5.50 194.13 5.35Q194.17 5.19 194.22 5.08L194.22 5.08Q194.49 5.12 194.75 5.14Q195.01 5.15 195.43 5.15L195.43 5.15Q196.31 5.15 197.08 5.10Q197.85 5.05 198.47 5.00Q199.09 4.94 199.54 4.89Q199.99 4.84 200.23 4.84L200.23 4.84Q200.55 4.84 200.80 5.18Q201.05 5.52 201.19 6.13L201.19 6.13Q200.75 6.09 200.47 6.08Q200.20 6.06 199.99 6.06L199.99 6.06Q199.28 6.06 198.68 6.13Q198.09 6.19 197.55 6.27L197.55 6.27Q197.47 6.40 197.36 6.59Q197.26 6.79 197.09 7.15Q196.92 7.50 196.66 8.08Q196.41 8.65 196.01 9.53L196.01 9.53Q196.56 9.45 197.06 9.39Q197.55 9.34 197.89 9.34ZM213.19 4.98L213.19 4.98Q213.46 5.10 213.74 5.27Q214.02 5.45 214.26 5.63Q214.49 5.81 214.65 5.98Q214.82 6.16 214.83 6.27L214.83 6.27Q214.59 6.22 214.35 6.20Q214.12 6.17 213.92 6.17L213.92 6.17Q213.29 6.17 212.67 6.48Q212.04 6.79 211.48 7.32Q210.92 7.85 210.45 8.57Q209.97 9.28 209.63 10.09Q209.29 10.91 209.09 11.77Q208.89 12.64 208.89 13.48L208.89 13.48Q208.89 14.57 209.26 15.11Q209.62 15.64 210.32 15.64L210.32 15.64Q210.66 15.64 211.05 15.51Q211.44 15.37 211.85 15.13Q212.25 14.90 212.65 14.56Q213.04 14.22 213.37 13.82L213.37 13.82Q213.86 13.23 214.26 12.48Q214.65 11.73 214.92 10.89Q215.19 10.05 215.34 9.16Q215.49 8.27 215.49 7.42L215.49 7.42Q215.49 7.08 215.47 6.85Q215.46 6.62 215.44 6.46Q215.42 6.30 215.40 6.20Q215.39 6.10 215.38 6.03L215.38 6.03Q215.54 6.12 215.75 6.24Q215.95 6.36 216.12 6.59Q216.30 6.82 216.42 7.20Q216.54 7.57 216.54 8.18L216.54 8.18Q216.54 9.16 216.31 10.10Q216.08 11.05 215.66 11.90Q215.25 12.75 214.69 13.50Q214.13 14.24 213.49 14.80L213.49 14.80Q212.65 15.54 211.69 15.95Q210.74 16.35 209.86 16.35L209.86 16.35Q208.57 16.35 207.89 15.53Q207.21 14.71 207.21 13.12L207.21 13.12Q207.21 12.26 207.40 11.31Q207.59 10.36 207.93 9.44Q208.28 8.51 208.75 7.68Q209.23 6.85 209.80 6.21Q210.36 5.57 211.01 5.19Q211.67 4.82 212.35 4.82L212.35 4.82Q212.58 4.82 212.77 4.85Q212.97 4.89 213.19 4.98ZM233.38 7.46L233.38 7.46Q233.38 8.13 233.08 8.73Q232.78 9.32 232.25 9.79Q231.71 10.26 231.00 10.58Q230.29 10.91 229.45 11.02L229.45 11.02Q229.66 11.65 229.96 12.31Q230.26 12.98 230.61 13.59Q230.96 14.21 231.34 14.73Q231.71 15.25 232.08 15.58L232.08 15.58Q232.01 15.72 231.87 15.86Q231.74 16.00 231.57 16.12Q231.39 16.24 231.20 16.32Q231.01 16.39 230.85 16.39L230.85 16.39Q230.54 16.39 230.26 16.10Q229.98 15.81 229.69 15.17Q229.40 14.53 229.09 13.52Q228.77 12.50 228.40 11.07L228.40 11.07Q228.24 11.07 228.09 11.07Q227.93 11.07 227.85 11.05L227.85 11.05Q227.75 10.99 227.64 10.85L227.64 10.85Q227.26 11.66 226.97 12.38Q226.67 13.09 226.44 13.76Q226.21 14.42 226.04 15.04Q225.86 15.67 225.74 16.31L225.74 16.31Q225.26 16.20 224.91 15.90Q224.56 15.61 224.25 15.08L224.25 15.08Q224.31 14.95 224.37 14.83Q224.43 14.71 224.53 14.50Q224.63 14.28 224.78 13.94Q224.92 13.61 225.17 13.05Q225.41 12.49 225.76 11.68Q226.10 10.86 226.59 9.70L226.59 9.70Q226.81 9.18 226.97 8.79Q227.14 8.40 227.26 8.04Q227.39 7.69 227.49 7.33Q227.60 6.97 227.71 6.51L227.71 6.51Q227.07 6.73 226.51 7.01Q225.96 7.28 225.60 7.59L225.60 7.59Q225.47 7.50 225.34 7.34Q225.20 7.17 225.09 6.96Q224.98 6.76 224.90 6.55Q224.81 6.34 224.80 6.17L224.80 6.17Q225.22 5.89 225.83 5.66Q226.44 5.42 227.12 5.24Q227.81 5.07 228.52 4.97Q229.24 4.87 229.85 4.87L229.85 4.87Q231.53 4.87 232.46 5.56Q233.38 6.26 233.38 7.46ZM229.80 6.02L229.96 6.29Q229.87 6.41 229.66 6.79Q229.45 7.17 229.17 7.69Q228.90 8.22 228.60 8.83Q228.30 9.45 228.02 10.05L228.02 10.05Q229.07 10.05 229.95 9.86Q230.83 9.66 231.48 9.30Q232.12 8.95 232.48 8.46Q232.83 7.98 232.83 7.39L232.83 7.39Q232.83 6.69 232.33 6.32Q231.83 5.95 230.78 5.95L230.78 5.95Q230.54 5.95 230.30 5.97Q230.06 5.99 229.80 6.02L229.80 6.02ZM259.99 5.74L259.99 5.74Q260.04 5.98 260.06 6.07Q260.08 6.16 260.08 6.31L260.08 6.31Q260.08 6.78 259.87 7.18Q259.67 7.57 259.32 7.74L259.32 7.74Q259.04 7.36 258.64 7.09Q258.23 6.82 257.75 6.64Q257.26 6.47 256.75 6.38Q256.23 6.30 255.74 6.30L255.74 6.30Q255.25 6.30 254.82 6.38Q254.39 6.45 254.06 6.59Q253.74 6.72 253.55 6.92Q253.36 7.11 253.36 7.36L253.36 7.36Q253.40 7.67 253.74 7.99Q254.07 8.30 254.56 8.60Q255.05 8.90 255.65 9.20Q256.24 9.49 256.82 9.76L256.82 9.76Q257.53 10.09 258.05 10.38Q258.57 10.67 258.90 11.01Q259.24 11.35 259.41 11.79Q259.57 12.22 259.57 12.84L259.57 12.84Q259.57 13.55 259.34 14.18Q259.10 14.80 258.64 15.26Q258.19 15.72 257.54 15.98Q256.90 16.24 256.10 16.24L256.10 16.24Q255.32 16.24 254.41 16.00Q253.50 15.76 252.71 15.35Q251.92 14.94 251.39 14.40Q250.87 13.86 250.87 13.26L250.87 13.26Q250.87 12.98 251.03 12.54Q251.19 12.11 251.61 11.63L251.61 11.63Q251.65 12.05 252.06 12.63Q252.48 13.20 253.30 13.69L253.30 13.69Q254.07 14.14 254.89 14.34Q255.71 14.55 256.42 14.55L256.42 14.55Q257.21 14.55 257.70 14.35Q258.19 14.15 258.47 13.88Q258.75 13.61 258.86 13.33Q258.97 13.05 258.99 12.88L258.99 12.88Q258.97 12.60 258.73 12.34Q258.48 12.08 258.07 11.84Q257.66 11.59 257.11 11.34Q256.56 11.09 255.98 10.84L255.98 10.84Q255.09 10.44 254.46 10.10Q253.82 9.76 253.41 9.40Q252.99 9.04 252.80 8.65Q252.62 8.26 252.62 7.76L252.62 7.76Q252.62 6.97 253.09 6.27Q253.57 5.57 254.46 5.21L254.46 5.21Q254.91 5.01 255.42 4.93Q255.93 4.84 256.42 4.84L256.42 4.84Q257.35 4.84 258.23 5.10Q259.11 5.35 259.99 5.74ZM273.48 9.21L273.48 9.21Q273.94 9.21 274.20 9.46Q274.46 9.72 274.46 10.16L274.46 10.16Q274.46 10.28 274.43 10.39Q274.41 10.51 274.39 10.60L274.39 10.60Q274.20 10.57 273.98 10.55Q273.76 10.53 273.45 10.53L273.45 10.53Q272.85 10.53 272.23 10.63Q271.61 10.74 271.05 10.81L271.05 10.81Q270.73 11.55 270.47 12.24Q270.20 12.94 270.01 13.51Q269.82 14.08 269.72 14.50Q269.61 14.92 269.60 15.13L269.60 15.13Q270.73 14.90 271.89 14.73Q273.04 14.56 274.32 14.48L274.32 14.48Q274.47 14.71 274.57 14.99Q274.68 15.27 274.68 15.60L274.68 15.60Q274.68 15.68 274.68 15.78Q274.68 15.88 274.65 15.97L274.65 15.97Q274.26 15.96 273.83 15.95Q273.39 15.95 272.69 15.95L272.69 15.95Q272.23 15.95 271.82 15.97Q271.40 15.99 270.98 16.03Q270.56 16.07 270.09 16.14Q269.63 16.21 269.04 16.31L269.04 16.31Q268.39 16.06 267.79 15.08L267.79 15.08Q268.03 14.57 268.46 13.54Q268.88 12.52 269.54 10.79L269.54 10.79Q268.91 10.60 268.72 10.09L268.72 10.09Q268.79 10.02 269.12 9.92Q269.46 9.81 269.95 9.70L269.95 9.70Q270.16 9.16 270.30 8.75Q270.45 8.34 270.56 7.99Q270.68 7.63 270.77 7.29Q270.86 6.94 270.94 6.54L270.94 6.54Q270.45 6.51 270.17 6.27Q269.89 6.02 269.89 5.63L269.89 5.63Q269.89 5.52 269.93 5.36Q269.96 5.21 270.00 5.10L270.00 5.10Q270.28 5.14 270.54 5.15Q270.80 5.17 271.22 5.17L271.22 5.17Q272.10 5.17 272.87 5.12Q273.64 5.07 274.27 5.01Q274.89 4.96 275.34 4.91Q275.79 4.86 276.02 4.86L276.02 4.86Q276.35 4.86 276.60 5.19Q276.85 5.53 276.98 6.15L276.98 6.15Q276.54 6.10 276.27 6.09Q276.00 6.08 275.79 6.08L275.79 6.08Q275.02 6.08 274.38 6.15Q273.74 6.23 273.15 6.31L273.15 6.31Q273.07 6.44 272.96 6.64Q272.86 6.83 272.69 7.18Q272.52 7.53 272.28 8.06Q272.03 8.60 271.68 9.39L271.68 9.39Q272.22 9.31 272.68 9.26Q273.15 9.21 273.48 9.21ZM283.85 16.24L283.85 16.24Q283.18 16.04 282.92 15.85Q282.66 15.65 282.66 15.36L282.66 15.36Q282.66 15.13 282.79 14.73Q282.91 14.32 283.16 13.77Q283.40 13.22 283.75 12.54Q284.09 11.87 284.52 11.10L284.52 11.10Q284.16 11.09 283.87 11.08Q283.58 11.07 283.40 11.07L283.40 11.07Q283.49 10.86 283.88 10.71Q284.27 10.56 284.91 10.44L284.91 10.44Q285.46 9.53 286.08 8.71Q286.71 7.88 287.34 7.19Q287.97 6.50 288.60 5.97Q289.23 5.45 289.80 5.14L289.80 5.14Q289.81 5.04 289.82 4.97Q289.83 4.90 289.83 4.87L289.83 4.87Q290.02 4.87 290.35 4.97Q290.68 5.07 291.00 5.21Q291.31 5.35 291.56 5.49Q291.80 5.64 291.83 5.74L291.83 5.74Q291.37 6.55 290.92 8.17Q290.47 9.79 290.18 12.04L290.18 12.04Q290.11 12.60 290.06 13.31Q290.01 14.03 290.01 14.91L290.01 14.91Q290.01 15.22 290.01 15.54Q290.01 15.86 290.04 16.21L290.04 16.21Q290.01 16.23 289.98 16.23Q289.95 16.23 289.87 16.23L289.87 16.23Q289.67 16.23 289.41 16.16Q289.16 16.10 288.91 16.01Q288.67 15.92 288.49 15.81Q288.32 15.69 288.27 15.61L288.27 15.61Q288.26 15.43 288.26 15.25Q288.26 15.08 288.26 14.88L288.26 14.88Q288.26 14.01 288.32 13.12Q288.39 12.22 288.54 11.27L288.54 11.27Q288.34 11.26 288.02 11.23Q287.70 11.21 287.30 11.20Q286.90 11.19 286.45 11.16Q285.99 11.14 285.56 11.13L285.56 11.13Q285.22 11.76 284.93 12.38Q284.63 13.01 284.42 13.64L284.42 13.64Q284.19 14.31 284.04 14.98Q283.89 15.65 283.85 16.24ZM289.25 7.83L289.25 7.83Q289.31 7.63 289.39 7.29Q289.46 6.94 289.53 6.57L289.53 6.57Q289.18 6.69 288.76 7.03Q288.33 7.36 287.88 7.86Q287.42 8.36 286.95 8.98Q286.48 9.60 286.05 10.30L286.05 10.30Q287.22 10.21 288.72 10.18L288.72 10.18Q288.83 9.59 288.97 9.01Q289.10 8.43 289.25 7.83ZM304.99 16.21L304.99 16.21Q304.96 16.23 304.93 16.23Q304.91 16.23 304.82 16.23L304.82 16.23Q304.63 16.23 304.37 16.16Q304.11 16.10 303.86 16.01Q303.62 15.92 303.44 15.81Q303.27 15.69 303.23 15.61L303.23 15.61Q303.21 15.41 303.21 15.20Q303.21 14.99 303.21 14.80L303.21 14.80Q303.21 13.23 303.44 11.52Q303.67 9.81 304.21 7.83L304.21 7.83Q304.26 7.63 304.32 7.33Q304.39 7.03 304.46 6.68L304.46 6.68Q304.12 6.94 303.66 7.53Q303.20 8.11 302.69 8.90Q302.18 9.69 301.66 10.63Q301.15 11.58 300.73 12.55Q300.31 13.52 300.01 14.48Q299.71 15.43 299.64 16.24L299.64 16.24Q298.97 16.04 298.71 15.85Q298.45 15.65 298.45 15.37L298.45 15.37Q298.45 15.12 298.61 14.66Q298.76 14.20 299.04 13.57Q299.32 12.94 299.73 12.16Q300.13 11.38 300.62 10.49L300.62 10.49Q301.18 9.46 301.72 8.57Q302.26 7.67 302.78 6.94Q303.30 6.22 303.79 5.68Q304.29 5.15 304.78 4.87L304.78 4.87Q304.98 4.87 305.31 4.97Q305.63 5.07 305.95 5.21Q306.26 5.35 306.51 5.49Q306.75 5.64 306.78 5.74L306.78 5.74Q306.59 6.13 306.32 6.92Q306.05 7.70 305.78 8.69Q305.51 9.69 305.26 10.80Q305.02 11.91 304.88 12.94L304.88 12.94Q305.20 12.17 305.63 11.33Q306.05 10.50 306.53 9.68Q307.01 8.86 307.50 8.09Q308 7.32 308.48 6.69Q308.95 6.05 309.37 5.57Q309.78 5.10 310.10 4.87L310.10 4.87Q310.30 4.87 310.63 4.97Q310.95 5.07 311.27 5.21Q311.58 5.35 311.83 5.49Q312.07 5.64 312.10 5.74L312.10 5.74Q311.65 6.54 311.32 7.69Q310.98 8.83 310.75 10.09Q310.52 11.35 310.40 12.59Q310.28 13.83 310.28 14.81L310.28 14.81Q310.28 15.13 310.28 15.48Q310.28 15.83 310.31 16.21L310.31 16.21Q310.11 16.21 309.84 16.16Q309.57 16.11 309.31 16.03Q309.05 15.95 308.84 15.84Q308.63 15.74 308.55 15.61L308.55 15.61Q308.53 15.41 308.53 15.20Q308.53 14.99 308.53 14.80L308.53 14.80Q308.53 13.23 308.76 11.52Q308.99 9.81 309.53 7.83L309.53 7.83Q309.58 7.63 309.65 7.29Q309.72 6.96 309.79 6.59L309.79 6.59Q309.40 6.79 308.90 7.34Q308.41 7.90 307.89 8.69Q307.38 9.48 306.89 10.44Q306.39 11.41 305.99 12.41Q305.59 13.41 305.32 14.40Q305.05 15.39 304.99 16.21ZM324.60 14.38L324.60 14.38Q324.95 14.98 324.95 15.54L324.95 15.54Q324.95 15.67 324.93 15.77Q324.91 15.88 324.88 15.99L324.88 15.99Q324.65 15.96 324.39 15.95Q324.13 15.93 323.85 15.93L323.85 15.93Q323.51 15.93 323.17 15.95Q322.83 15.97 322.41 16.02Q321.99 16.06 321.47 16.13Q320.95 16.20 320.26 16.31L320.26 16.31Q319.94 16.20 319.62 15.87Q319.30 15.54 319.02 15.08L319.02 15.08Q319.16 14.77 319.37 14.31Q319.58 13.86 319.86 13.21Q320.14 12.56 320.48 11.68Q320.82 10.81 321.22 9.66L321.22 9.66Q321.47 8.90 321.65 8.33Q321.83 7.76 321.98 7.22Q322.13 6.68 322.27 6.09Q322.41 5.50 322.57 4.73L322.57 4.73Q323.13 4.84 323.55 5.14Q323.96 5.45 324.34 6.01L324.34 6.01Q324.23 6.19 324.04 6.59Q323.86 7 323.62 7.58Q323.37 8.16 323.08 8.90Q322.78 9.63 322.46 10.47L322.46 10.47Q322.15 11.30 321.86 12.03Q321.57 12.75 321.33 13.34Q321.10 13.93 320.96 14.35Q320.82 14.77 320.82 14.98L320.82 14.98Q321.05 14.97 321.23 14.95Q321.41 14.94 321.61 14.90Q321.80 14.87 322.03 14.82Q322.27 14.77 322.59 14.69L322.59 14.69Q322.87 14.62 323.11 14.57Q323.34 14.52 323.57 14.48Q323.81 14.45 324.05 14.43Q324.30 14.41 324.60 14.38ZM339.02 9.21L339.02 9.21Q339.49 9.21 339.74 9.46Q340.00 9.72 340.00 10.16L340.00 10.16Q340.00 10.28 339.98 10.39Q339.96 10.51 339.93 10.60L339.93 10.60Q339.75 10.57 339.53 10.55Q339.30 10.53 339.00 10.53L339.00 10.53Q338.39 10.53 337.78 10.63Q337.16 10.74 336.60 10.81L336.60 10.81Q336.28 11.55 336.01 12.24Q335.75 12.94 335.56 13.51Q335.37 14.08 335.26 14.50Q335.16 14.92 335.15 15.13L335.15 15.13Q336.28 14.90 337.44 14.73Q338.59 14.56 339.86 14.48L339.86 14.48Q340.02 14.71 340.12 14.99Q340.23 15.27 340.23 15.60L340.23 15.60Q340.23 15.68 340.23 15.78Q340.23 15.88 340.20 15.97L340.20 15.97Q339.81 15.96 339.37 15.95Q338.94 15.95 338.24 15.95L338.24 15.95Q337.78 15.95 337.36 15.97Q336.95 15.99 336.53 16.03Q336.11 16.07 335.64 16.14Q335.17 16.21 334.59 16.31L334.59 16.31Q333.94 16.06 333.34 15.08L333.34 15.08Q333.58 14.57 334.00 13.54Q334.43 12.52 335.09 10.79L335.09 10.79Q334.46 10.60 334.26 10.09L334.26 10.09Q334.33 10.02 334.67 9.92Q335.01 9.81 335.50 9.70L335.50 9.70Q335.71 9.16 335.85 8.75Q336 8.34 336.11 7.99Q336.22 7.63 336.31 7.29Q336.41 6.94 336.49 6.54L336.49 6.54Q336 6.51 335.72 6.27Q335.44 6.02 335.44 5.63L335.44 5.63Q335.44 5.52 335.47 5.36Q335.51 5.21 335.55 5.10L335.55 5.10Q335.83 5.14 336.09 5.15Q336.35 5.17 336.77 5.17L336.77 5.17Q337.65 5.17 338.42 5.12Q339.19 5.07 339.81 5.01Q340.44 4.96 340.89 4.91Q341.33 4.86 341.57 4.86L341.57 4.86Q341.89 4.86 342.15 5.19Q342.40 5.53 342.52 6.15L342.52 6.15Q342.09 6.10 341.82 6.09Q341.54 6.08 341.33 6.08L341.33 6.08Q340.56 6.08 339.93 6.15Q339.29 6.23 338.70 6.31L338.70 6.31Q338.62 6.44 338.51 6.64Q338.41 6.83 338.24 7.18Q338.07 7.53 337.83 8.06Q337.58 8.60 337.23 9.39L337.23 9.39Q337.76 9.31 338.23 9.26Q338.70 9.21 339.02 9.21ZM357.90 5.74L357.90 5.74Q357.94 5.98 357.96 6.07Q357.98 6.16 357.98 6.31L357.98 6.31Q357.98 6.78 357.78 7.18Q357.57 7.57 357.22 7.74L357.22 7.74Q356.94 7.36 356.54 7.09Q356.13 6.82 355.65 6.64Q355.17 6.47 354.65 6.38Q354.13 6.30 353.64 6.30L353.64 6.30Q353.15 6.30 352.72 6.38Q352.30 6.45 351.97 6.59Q351.64 6.72 351.45 6.92Q351.26 7.11 351.26 7.36L351.26 7.36Q351.30 7.67 351.64 7.99Q351.97 8.30 352.46 8.60Q352.95 8.90 353.55 9.20Q354.14 9.49 354.72 9.76L354.72 9.76Q355.43 10.09 355.95 10.38Q356.47 10.67 356.80 11.01Q357.14 11.35 357.31 11.79Q357.48 12.22 357.48 12.84L357.48 12.84Q357.48 13.55 357.24 14.18Q357 14.80 356.54 15.26Q356.09 15.72 355.45 15.98Q354.80 16.24 354.00 16.24L354.00 16.24Q353.22 16.24 352.31 16.00Q351.40 15.76 350.61 15.35Q349.82 14.94 349.29 14.40Q348.77 13.86 348.77 13.26L348.77 13.26Q348.77 12.98 348.93 12.54Q349.09 12.11 349.51 11.63L349.51 11.63Q349.55 12.05 349.96 12.63Q350.38 13.20 351.20 13.69L351.20 13.69Q351.97 14.14 352.79 14.34Q353.61 14.55 354.33 14.55L354.33 14.55Q355.11 14.55 355.60 14.35Q356.09 14.15 356.37 13.88Q356.65 13.61 356.76 13.33Q356.87 13.05 356.89 12.88L356.89 12.88Q356.87 12.60 356.63 12.34Q356.38 12.08 355.97 11.84Q355.56 11.59 355.01 11.34Q354.47 11.09 353.88 10.84L353.88 10.84Q353.00 10.44 352.36 10.10Q351.72 9.76 351.31 9.40Q350.90 9.04 350.71 8.65Q350.52 8.26 350.52 7.76L350.52 7.76Q350.52 6.97 350.99 6.27Q351.47 5.57 352.37 5.21L352.37 5.21Q352.81 5.01 353.32 4.93Q353.84 4.84 354.33 4.84L354.33 4.84Q355.25 4.84 356.13 5.10Q357.01 5.35 357.90 5.74ZM374.72 5.74L374.72 5.74Q374.77 5.98 374.79 6.07Q374.81 6.16 374.81 6.31L374.81 6.31Q374.81 6.78 374.60 7.18Q374.40 7.57 374.05 7.74L374.05 7.74Q373.77 7.36 373.37 7.09Q372.96 6.82 372.48 6.64Q371.99 6.47 371.48 6.38Q370.96 6.30 370.47 6.30L370.47 6.30Q369.98 6.30 369.55 6.38Q369.12 6.45 368.79 6.59Q368.47 6.72 368.28 6.92Q368.09 7.11 368.09 7.36L368.09 7.36Q368.13 7.67 368.47 7.99Q368.80 8.30 369.29 8.60Q369.78 8.90 370.38 9.20Q370.97 9.49 371.55 9.76L371.55 9.76Q372.26 10.09 372.78 10.38Q373.30 10.67 373.63 11.01Q373.97 11.35 374.14 11.79Q374.30 12.22 374.30 12.84L374.30 12.84Q374.30 13.55 374.07 14.18Q373.83 14.80 373.37 15.26Q372.92 15.72 372.27 15.98Q371.63 16.24 370.83 16.24L370.83 16.24Q370.05 16.24 369.14 16.00Q368.23 15.76 367.44 15.35Q366.65 14.94 366.12 14.40Q365.60 13.86 365.60 13.26L365.60 13.26Q365.60 12.98 365.76 12.54Q365.92 12.11 366.34 11.63L366.34 11.63Q366.38 12.05 366.79 12.63Q367.21 13.20 368.03 13.69L368.03 13.69Q368.80 14.14 369.62 14.34Q370.44 14.55 371.15 14.55L371.15 14.55Q371.94 14.55 372.43 14.35Q372.92 14.15 373.20 13.88Q373.48 13.61 373.59 13.33Q373.70 13.05 373.72 12.88L373.72 12.88Q373.70 12.60 373.46 12.34Q373.21 12.08 372.80 11.84Q372.39 11.59 371.84 11.34Q371.29 11.09 370.71 10.84L370.71 10.84Q369.82 10.44 369.19 10.10Q368.55 9.76 368.14 9.40Q367.72 9.04 367.53 8.65Q367.35 8.26 367.35 7.76L367.35 7.76Q367.35 6.97 367.82 6.27Q368.30 5.57 369.19 5.21L369.19 5.21Q369.64 5.01 370.15 4.93Q370.66 4.84 371.15 4.84L371.15 4.84Q372.08 4.84 372.96 5.10Q373.84 5.35 374.72 5.74ZM393.33 12.43L393.33 12.43Q393.33 11.45 393.56 10.51Q393.79 9.56 394.21 8.71Q394.63 7.87 395.21 7.16Q395.79 6.45 396.49 5.94Q397.18 5.42 397.96 5.13Q398.75 4.84 399.57 4.84L399.57 4.84Q400.54 4.84 401.08 5.25Q401.62 5.66 401.62 6.38L401.62 6.38Q401.62 6.66 401.54 6.96Q401.46 7.25 401.32 7.54Q401.17 7.83 400.97 8.09Q400.78 8.36 400.54 8.55L400.54 8.55Q400.18 8.50 399.91 8.22Q399.64 7.95 399.57 7.59L399.57 7.59Q400.06 7.18 400.35 6.74Q400.64 6.30 400.64 5.94L400.64 5.94Q400.64 5.32 399.87 5.32L399.87 5.32Q399.55 5.32 399.20 5.45Q398.86 5.59 398.51 5.82Q398.16 6.06 397.83 6.40Q397.50 6.73 397.22 7.14L397.22 7.14Q395.28 9.94 395.28 12.87L395.28 12.87Q395.28 13.90 395.60 14.53Q395.92 15.16 396.45 15.27L396.45 15.27Q397.05 15.13 397.98 14.50Q398.90 13.87 399.99 12.87L399.99 12.87Q400.13 13.01 400.16 13.16L400.16 13.16Q399.76 13.69 399.32 14.18Q398.89 14.67 398.46 15.08Q398.03 15.48 397.62 15.79Q397.21 16.10 396.86 16.27L396.86 16.27Q395.12 16.24 394.23 15.27Q393.33 14.31 393.33 12.43ZM408.77 16.24L408.77 16.24Q408.10 16.04 407.84 15.85Q407.58 15.65 407.58 15.36L407.58 15.36Q407.58 15.13 407.71 14.73Q407.83 14.32 408.08 13.77Q408.32 13.22 408.67 12.54Q409.01 11.87 409.44 11.10L409.44 11.10Q409.08 11.09 408.79 11.08Q408.51 11.07 408.32 11.07L408.32 11.07Q408.41 10.86 408.80 10.71Q409.19 10.56 409.84 10.44L409.84 10.44Q410.38 9.53 411.00 8.71Q411.63 7.88 412.26 7.19Q412.89 6.50 413.52 5.97Q414.15 5.45 414.72 5.14L414.72 5.14Q414.74 5.04 414.74 4.97Q414.75 4.90 414.75 4.87L414.75 4.87Q414.95 4.87 415.27 4.97Q415.60 5.07 415.92 5.21Q416.23 5.35 416.48 5.49Q416.72 5.64 416.75 5.74L416.75 5.74Q416.29 6.55 415.84 8.17Q415.39 9.79 415.10 12.04L415.10 12.04Q415.03 12.60 414.98 13.31Q414.93 14.03 414.93 14.91L414.93 14.91Q414.93 15.22 414.93 15.54Q414.93 15.86 414.96 16.21L414.96 16.21Q414.93 16.23 414.90 16.23Q414.88 16.23 414.79 16.23L414.79 16.23Q414.60 16.23 414.34 16.16Q414.08 16.10 413.83 16.01Q413.59 15.92 413.41 15.81Q413.24 15.69 413.20 15.61L413.20 15.61Q413.18 15.43 413.18 15.25Q413.18 15.08 413.18 14.88L413.18 14.88Q413.18 14.01 413.24 13.12Q413.31 12.22 413.46 11.27L413.46 11.27Q413.27 11.26 412.94 11.23Q412.62 11.21 412.22 11.20Q411.82 11.19 411.37 11.16Q410.91 11.14 410.48 11.13L410.48 11.13Q410.14 11.76 409.85 12.38Q409.56 13.01 409.35 13.64L409.35 13.64Q409.11 14.31 408.96 14.98Q408.81 15.65 408.77 16.24ZM414.18 7.83L414.18 7.83Q414.23 7.63 414.31 7.29Q414.39 6.94 414.46 6.57L414.46 6.57Q414.11 6.69 413.68 7.03Q413.25 7.36 412.80 7.86Q412.34 8.36 411.87 8.98Q411.40 9.60 410.97 10.30L410.97 10.30Q412.15 10.21 413.64 10.18L413.64 10.18Q413.76 9.59 413.89 9.01Q414.02 8.43 414.18 7.83ZM429.91 16.21L429.91 16.21Q429.88 16.23 429.86 16.23Q429.83 16.23 429.74 16.23L429.74 16.23Q429.55 16.23 429.29 16.16Q429.03 16.10 428.78 16.01Q428.54 15.92 428.36 15.81Q428.19 15.69 428.15 15.61L428.15 15.61Q428.13 15.41 428.13 15.20Q428.13 14.99 428.13 14.80L428.13 14.80Q428.13 13.23 428.36 11.52Q428.60 9.81 429.13 7.83L429.13 7.83Q429.18 7.63 429.25 7.33Q429.31 7.03 429.38 6.68L429.38 6.68Q429.04 6.94 428.58 7.53Q428.12 8.11 427.61 8.90Q427.10 9.69 426.59 10.63Q426.08 11.58 425.66 12.55Q425.24 13.52 424.93 14.48Q424.63 15.43 424.56 16.24L424.56 16.24Q423.89 16.04 423.63 15.85Q423.37 15.65 423.37 15.37L423.37 15.37Q423.37 15.12 423.53 14.66Q423.68 14.20 423.96 13.57Q424.24 12.94 424.65 12.16Q425.05 11.38 425.54 10.49L425.54 10.49Q426.10 9.46 426.64 8.57Q427.18 7.67 427.70 6.94Q428.22 6.22 428.71 5.68Q429.21 5.15 429.70 4.87L429.70 4.87Q429.90 4.87 430.23 4.97Q430.56 5.07 430.87 5.21Q431.19 5.35 431.43 5.49Q431.68 5.64 431.70 5.74L431.70 5.74Q431.51 6.13 431.24 6.92Q430.98 7.70 430.70 8.69Q430.43 9.69 430.18 10.80Q429.94 11.91 429.80 12.94L429.80 12.94Q430.12 12.17 430.55 11.33Q430.98 10.50 431.45 9.68Q431.93 8.86 432.42 8.09Q432.92 7.32 433.40 6.69Q433.87 6.05 434.29 5.57Q434.70 5.10 435.02 4.87L435.02 4.87Q435.22 4.87 435.55 4.97Q435.88 5.07 436.19 5.21Q436.51 5.35 436.75 5.49Q437.00 5.64 437.02 5.74L437.02 5.74Q436.58 6.54 436.24 7.69Q435.90 8.83 435.67 10.09Q435.44 11.35 435.32 12.59Q435.20 13.83 435.20 14.81L435.20 14.81Q435.20 15.13 435.20 15.48Q435.20 15.83 435.23 16.21L435.23 16.21Q435.04 16.21 434.76 16.16Q434.49 16.11 434.23 16.03Q433.97 15.95 433.76 15.84Q433.55 15.74 433.47 15.61L433.47 15.61Q433.45 15.41 433.45 15.20Q433.45 14.99 433.45 14.80L433.45 14.80Q433.45 13.23 433.68 11.52Q433.92 9.81 434.45 7.83L434.45 7.83Q434.50 7.63 434.57 7.29Q434.64 6.96 434.71 6.59L434.71 6.59Q434.32 6.79 433.82 7.34Q433.33 7.90 432.82 8.69Q432.31 9.48 431.81 10.44Q431.31 11.41 430.91 12.41Q430.51 13.41 430.24 14.40Q429.97 15.39 429.91 16.21ZM453.85 7.63L453.85 7.63Q453.85 8.40 453.47 9.10Q453.08 9.80 452.43 10.32Q451.78 10.85 450.90 11.16Q450.03 11.47 449.05 11.47L449.05 11.47Q448.70 11.47 448.50 11.38Q448.29 11.28 448.04 11.02L448.04 11.02Q447.34 12.54 446.90 13.82Q446.46 15.11 446.21 16.31L446.21 16.31Q445.68 16.18 445.34 15.87Q445.00 15.55 444.72 15.08L444.72 15.08Q444.86 14.81 445.06 14.38Q445.26 13.94 445.54 13.31Q445.82 12.67 446.19 11.78Q446.56 10.89 447.06 9.70L447.06 9.70Q447.29 9.16 447.45 8.75Q447.62 8.34 447.75 7.99Q447.87 7.63 447.98 7.28Q448.08 6.93 448.20 6.51L448.20 6.51Q447.54 6.72 446.98 7Q446.43 7.28 446.07 7.59L446.07 7.59Q445.94 7.50 445.81 7.34Q445.68 7.17 445.56 6.96Q445.45 6.76 445.37 6.55Q445.28 6.34 445.27 6.17L445.27 6.17Q445.68 5.89 446.28 5.66Q446.88 5.42 447.57 5.24Q448.25 5.07 448.99 4.97Q449.72 4.87 450.39 4.87L450.39 4.87Q451.19 4.87 451.84 5.07Q452.48 5.28 452.93 5.64Q453.38 6.01 453.61 6.51Q453.85 7.01 453.85 7.63ZM451.36 5.95L451.36 5.95Q450.83 5.95 450.27 6.03L450.27 6.03L450.44 6.29Q450.30 6.47 450.09 6.83Q449.88 7.20 449.62 7.71Q449.37 8.22 449.07 8.85Q448.77 9.48 448.43 10.18L448.43 10.18Q449.53 10.18 450.42 9.97Q451.32 9.77 451.95 9.41Q452.59 9.06 452.95 8.58Q453.31 8.11 453.31 7.56L453.31 7.56Q453.31 6.83 452.82 6.39Q452.33 5.95 451.36 5.95ZM465.68 5.75L465.68 5.75Q465.07 6.58 464.56 7.57Q464.06 8.57 463.70 9.61Q463.34 10.65 463.15 11.67Q462.97 12.68 462.97 13.57L462.97 13.57Q462.97 14.66 463.29 15.15Q463.61 15.64 464.39 15.64L464.39 15.64Q465.30 15.64 465.99 15.00Q466.68 14.36 467.28 13.24L467.28 13.24Q467.67 12.52 467.95 11.65Q468.23 10.78 468.40 9.86Q468.58 8.95 468.66 8.02Q468.75 7.08 468.75 6.23L468.75 6.23Q468.75 5.68 468.73 5.43Q468.72 5.18 468.69 5.03L468.69 5.03Q468.73 5.03 468.90 5.05Q469.07 5.08 469.29 5.12Q469.50 5.17 469.72 5.24Q469.94 5.31 470.09 5.39L470.09 5.39Q470.02 6.45 469.83 7.59Q469.64 8.72 469.34 9.83Q469.03 10.93 468.62 11.96Q468.22 12.98 467.71 13.79L467.71 13.79Q466.97 14.99 466.05 15.67Q465.12 16.35 463.86 16.35L463.86 16.35Q462.57 16.35 461.86 15.60Q461.15 14.85 461.15 13.33L461.15 13.33Q461.15 12.45 461.34 11.33Q461.54 10.22 461.87 9.07Q462.20 7.91 462.63 6.81Q463.06 5.71 463.54 4.84L463.54 4.84Q463.78 4.86 464.10 4.94Q464.42 5.03 464.73 5.16Q465.04 5.29 465.30 5.45Q465.56 5.61 465.68 5.75ZM486.19 5.74L486.19 5.74Q486.23 5.98 486.25 6.07Q486.28 6.16 486.28 6.31L486.28 6.31Q486.28 6.78 486.07 7.18Q485.87 7.57 485.52 7.74L485.52 7.74Q485.24 7.36 484.83 7.09Q484.43 6.82 483.94 6.64Q483.46 6.47 482.94 6.38Q482.43 6.30 481.94 6.30L481.94 6.30Q481.45 6.30 481.02 6.38Q480.59 6.45 480.26 6.59Q479.93 6.72 479.74 6.92Q479.56 7.11 479.56 7.36L479.56 7.36Q479.60 7.67 479.93 7.99Q480.27 8.30 480.76 8.60Q481.25 8.90 481.84 9.20Q482.44 9.49 483.01 9.76L483.01 9.76Q483.73 10.09 484.25 10.38Q484.76 10.67 485.10 11.01Q485.44 11.35 485.60 11.79Q485.77 12.22 485.77 12.84L485.77 12.84Q485.77 13.55 485.53 14.18Q485.30 14.80 484.84 15.26Q484.39 15.72 483.74 15.98Q483.10 16.24 482.30 16.24L482.30 16.24Q481.52 16.24 480.61 16.00Q479.70 15.76 478.90 15.35Q478.11 14.94 477.59 14.40Q477.06 13.86 477.06 13.26L477.06 13.26Q477.06 12.98 477.22 12.54Q477.39 12.11 477.81 11.63L477.81 11.63Q477.85 12.05 478.26 12.63Q478.67 13.20 479.50 13.69L479.50 13.69Q480.27 14.14 481.09 14.34Q481.91 14.55 482.62 14.55L482.62 14.55Q483.41 14.55 483.90 14.35Q484.39 14.15 484.67 13.88Q484.95 13.61 485.06 13.33Q485.17 13.05 485.18 12.88L485.18 12.88Q485.17 12.60 484.92 12.34Q484.68 12.08 484.27 11.84Q483.85 11.59 483.31 11.34Q482.76 11.09 482.17 10.84L482.17 10.84Q481.29 10.44 480.65 10.10Q480.02 9.76 479.60 9.40Q479.19 9.04 479.00 8.65Q478.81 8.26 478.81 7.76L478.81 7.76Q478.81 6.97 479.29 6.27Q479.77 5.57 480.66 5.21L480.66 5.21Q481.11 5.01 481.62 4.93Q482.13 4.84 482.62 4.84L482.62 4.84Q483.55 4.84 484.43 5.10Q485.31 5.35 486.19 5.74ZM513.35 5.74L513.35 5.74Q513.39 5.98 513.41 6.07Q513.44 6.16 513.44 6.31L513.44 6.31Q513.44 6.78 513.23 7.18Q513.03 7.57 512.68 7.74L512.68 7.74Q512.40 7.36 511.99 7.09Q511.59 6.82 511.10 6.64Q510.62 6.47 510.10 6.38Q509.59 6.30 509.10 6.30L509.10 6.30Q508.61 6.30 508.18 6.38Q507.75 6.45 507.42 6.59Q507.09 6.72 506.90 6.92Q506.72 7.11 506.72 7.36L506.72 7.36Q506.76 7.67 507.09 7.99Q507.43 8.30 507.92 8.60Q508.41 8.90 509.00 9.20Q509.60 9.49 510.17 9.76L510.17 9.76Q510.89 10.09 511.41 10.38Q511.92 10.67 512.26 11.01Q512.60 11.35 512.76 11.79Q512.93 12.22 512.93 12.84L512.93 12.84Q512.93 13.55 512.69 14.18Q512.46 14.80 512.00 15.26Q511.55 15.72 510.90 15.98Q510.26 16.24 509.46 16.24L509.46 16.24Q508.68 16.24 507.77 16.00Q506.86 15.76 506.06 15.35Q505.27 14.94 504.75 14.40Q504.22 13.86 504.22 13.26L504.22 13.26Q504.22 12.98 504.38 12.54Q504.55 12.11 504.97 11.63L504.97 11.63Q505.01 12.05 505.42 12.63Q505.83 13.20 506.66 13.69L506.66 13.69Q507.43 14.14 508.25 14.34Q509.07 14.55 509.78 14.55L509.78 14.55Q510.57 14.55 511.06 14.35Q511.55 14.15 511.83 13.88Q512.11 13.61 512.22 13.33Q512.33 13.05 512.34 12.88L512.34 12.88Q512.33 12.60 512.08 12.34Q511.84 12.08 511.43 11.84Q511.01 11.59 510.47 11.34Q509.92 11.09 509.33 10.84L509.33 10.84Q508.45 10.44 507.81 10.10Q507.18 9.76 506.76 9.40Q506.35 9.04 506.16 8.65Q505.97 8.26 505.97 7.76L505.97 7.76Q505.97 6.97 506.45 6.27Q506.93 5.57 507.82 5.21L507.82 5.21Q508.27 5.01 508.78 4.93Q509.29 4.84 509.78 4.84L509.78 4.84Q510.71 4.84 511.59 5.10Q512.47 5.35 513.35 5.74ZM526.51 14.36L526.51 14.36Q526.51 13.78 526.71 12.85Q526.90 11.93 527.23 10.88L527.23 10.88Q526.30 10.95 525.37 11.06Q524.44 11.17 523.75 11.19L523.75 11.19Q523.12 12.66 522.75 13.89Q522.38 15.13 522.17 16.31L522.17 16.31Q521.64 16.18 521.29 15.87Q520.94 15.55 520.65 15.08L520.65 15.08Q520.76 14.85 520.90 14.50Q521.05 14.15 521.25 13.66Q521.46 13.16 521.72 12.50Q521.98 11.83 522.31 10.95L522.31 10.95Q521.85 10.75 521.70 10.40L521.70 10.40Q521.77 10.35 522.01 10.28Q522.26 10.22 522.62 10.15L522.62 10.15L522.80 9.70Q523.10 8.95 523.28 8.43Q523.47 7.91 523.61 7.41Q523.74 6.92 523.86 6.31Q523.98 5.71 524.15 4.79L524.15 4.79Q524.73 4.90 525.22 5.31Q525.70 5.71 526.05 6.29L526.05 6.29Q525.92 6.45 525.74 6.79Q525.56 7.13 525.34 7.59Q525.13 8.06 524.87 8.64Q524.62 9.23 524.33 9.87L524.33 9.87Q525.20 9.76 526.08 9.66Q526.97 9.56 527.66 9.52L527.66 9.52Q527.91 8.79 528.18 8.10Q528.46 7.41 528.72 6.83Q528.99 6.26 529.23 5.82Q529.48 5.39 529.68 5.18L529.68 5.18Q529.82 5.19 530.05 5.29Q530.28 5.38 530.52 5.50Q530.75 5.63 530.95 5.78Q531.15 5.92 531.22 6.05L531.22 6.05Q530.96 6.29 530.71 6.66Q530.46 7.04 530.21 7.53Q529.97 8.02 529.73 8.60Q529.49 9.17 529.28 9.79L529.28 9.79Q529.56 10.04 529.56 10.42L529.56 10.42Q529.56 10.68 529.45 10.91L529.45 10.91Q529.33 10.88 529.20 10.87Q529.07 10.86 528.93 10.85L528.93 10.85Q528.70 11.61 528.50 12.35Q528.30 13.09 528.17 13.76Q528.04 14.43 527.96 14.99Q527.88 15.55 527.88 15.93L527.88 15.93Q527.88 16.07 527.89 16.16Q527.90 16.24 527.91 16.30L527.91 16.30Q527.60 16.28 527.46 16.19Q527.32 16.10 527.25 16.00Q527.18 15.89 527.13 15.79Q527.07 15.68 526.95 15.62L526.95 15.62Q526.85 15.58 526.76 15.43Q526.68 15.27 526.62 15.08Q526.57 14.88 526.54 14.69Q526.51 14.49 526.51 14.36ZM543.96 4.98L543.96 4.98Q544.22 5.10 544.50 5.27Q544.78 5.45 545.02 5.63Q545.26 5.81 545.42 5.98Q545.58 6.16 545.59 6.27L545.59 6.27Q545.36 6.22 545.12 6.20Q544.88 6.17 544.68 6.17L544.68 6.17Q544.05 6.17 543.43 6.48Q542.81 6.79 542.25 7.32Q541.69 7.85 541.21 8.57Q540.74 9.28 540.39 10.09Q540.05 10.91 539.85 11.77Q539.66 12.64 539.66 13.48L539.66 13.48Q539.66 14.57 540.02 15.11Q540.39 15.64 541.09 15.64L541.09 15.64Q541.42 15.64 541.81 15.51Q542.21 15.37 542.61 15.13Q543.02 14.90 543.41 14.56Q543.80 14.22 544.14 13.82L544.14 13.82Q544.63 13.23 545.02 12.48Q545.41 11.73 545.68 10.89Q545.96 10.05 546.11 9.16Q546.25 8.27 546.25 7.42L546.25 7.42Q546.25 7.08 546.24 6.85Q546.22 6.62 546.20 6.46Q546.18 6.30 546.17 6.20Q546.15 6.10 546.14 6.03L546.14 6.03Q546.31 6.12 546.51 6.24Q546.71 6.36 546.89 6.59Q547.06 6.82 547.18 7.20Q547.30 7.57 547.30 8.18L547.30 8.18Q547.30 9.16 547.07 10.10Q546.84 11.05 546.43 11.90Q546.01 12.75 545.45 13.50Q544.89 14.24 544.25 14.80L544.25 14.80Q543.41 15.54 542.46 15.95Q541.51 16.35 540.62 16.35L540.62 16.35Q539.34 16.35 538.66 15.53Q537.98 14.71 537.98 13.12L537.98 13.12Q537.98 12.26 538.17 11.31Q538.36 10.36 538.70 9.44Q539.04 8.51 539.52 7.68Q539.99 6.85 540.56 6.21Q541.13 5.57 541.78 5.19Q542.43 4.82 543.12 4.82L543.12 4.82Q543.34 4.82 543.54 4.85Q543.73 4.89 543.96 4.98ZM564.16 7.63L564.16 7.63Q564.16 8.40 563.77 9.10Q563.39 9.80 562.74 10.32Q562.09 10.85 561.21 11.16Q560.34 11.47 559.36 11.47L559.36 11.47Q559.01 11.47 558.80 11.38Q558.60 11.28 558.35 11.02L558.35 11.02Q557.65 12.54 557.21 13.82Q556.77 15.11 556.51 16.31L556.51 16.31Q555.98 16.18 555.65 15.87Q555.31 15.55 555.03 15.08L555.03 15.08Q555.17 14.81 555.37 14.38Q555.56 13.94 555.84 13.31Q556.12 12.67 556.49 11.78Q556.86 10.89 557.37 9.70L557.37 9.70Q557.59 9.16 557.76 8.75Q557.93 8.34 558.05 7.99Q558.18 7.63 558.28 7.28Q558.39 6.93 558.50 6.51L558.50 6.51Q557.84 6.72 557.29 7Q556.74 7.28 556.37 7.59L556.37 7.59Q556.25 7.50 556.11 7.34Q555.98 7.17 555.87 6.96Q555.76 6.76 555.67 6.55Q555.59 6.34 555.58 6.17L555.58 6.17Q555.98 5.89 556.58 5.66Q557.19 5.42 557.87 5.24Q558.56 5.07 559.29 4.97Q560.03 4.87 560.70 4.87L560.70 4.87Q561.50 4.87 562.14 5.07Q562.79 5.28 563.23 5.64Q563.68 6.01 563.92 6.51Q564.16 7.01 564.16 7.63ZM561.67 5.95L561.67 5.95Q561.13 5.95 560.57 6.03L560.57 6.03L560.74 6.29Q560.60 6.47 560.39 6.83Q560.18 7.20 559.93 7.71Q559.68 8.22 559.38 8.85Q559.08 9.48 558.74 10.18L558.74 10.18Q559.83 10.18 560.73 9.97Q561.62 9.77 562.26 9.41Q562.90 9.06 563.25 8.58Q563.61 8.11 563.61 7.56L563.61 7.56Q563.61 6.83 563.12 6.39Q562.63 5.95 561.67 5.95ZM580.15 7.63L580.15 7.63Q580.15 8.40 579.76 9.10Q579.38 9.80 578.72 10.32Q578.07 10.85 577.20 11.16Q576.32 11.47 575.34 11.47L575.34 11.47Q574.99 11.47 574.79 11.38Q574.59 11.28 574.34 11.02L574.34 11.02Q573.64 12.54 573.19 13.82Q572.75 15.11 572.50 16.31L572.50 16.31Q571.97 16.18 571.63 15.87Q571.30 15.55 571.02 15.08L571.02 15.08Q571.16 14.81 571.35 14.38Q571.55 13.94 571.83 13.31Q572.11 12.67 572.48 11.78Q572.85 10.89 573.36 9.70L573.36 9.70Q573.58 9.16 573.75 8.75Q573.92 8.34 574.04 7.99Q574.17 7.63 574.27 7.28Q574.38 6.93 574.49 6.51L574.49 6.51Q573.83 6.72 573.28 7Q572.73 7.28 572.36 7.59L572.36 7.59Q572.24 7.50 572.10 7.34Q571.97 7.17 571.86 6.96Q571.75 6.76 571.66 6.55Q571.58 6.34 571.56 6.17L571.56 6.17Q571.97 5.89 572.57 5.66Q573.17 5.42 573.86 5.24Q574.55 5.07 575.28 4.97Q576.02 4.87 576.69 4.87L576.69 4.87Q577.49 4.87 578.13 5.07Q578.77 5.28 579.22 5.64Q579.67 6.01 579.91 6.51Q580.15 7.01 580.15 7.63ZM577.65 5.95L577.65 5.95Q577.12 5.95 576.56 6.03L576.56 6.03L576.73 6.29Q576.59 6.47 576.38 6.83Q576.17 7.20 575.92 7.71Q575.67 8.22 575.36 8.85Q575.06 9.48 574.73 10.18L574.73 10.18Q575.82 10.18 576.72 9.97Q577.61 9.77 578.25 9.41Q578.89 9.06 579.24 8.58Q579.60 8.11 579.60 7.56L579.60 7.56Q579.60 6.83 579.11 6.39Q578.62 5.95 577.65 5.95ZM587.02 14.38L587.02 14.38Q587.02 13.87 587.18 13.07Q587.34 12.26 587.60 11.33Q587.86 10.40 588.20 9.43Q588.53 8.46 588.88 7.60Q589.23 6.75 589.57 6.10Q589.90 5.46 590.17 5.18L590.17 5.18Q590.31 5.19 590.54 5.29Q590.77 5.38 591.01 5.50Q591.25 5.63 591.44 5.78Q591.64 5.92 591.70 6.05L591.70 6.05Q591.29 6.41 590.89 7.15Q590.49 7.88 590.12 8.82Q589.75 9.76 589.43 10.80Q589.11 11.84 588.87 12.82Q588.63 13.80 588.50 14.64Q588.36 15.48 588.36 16.00L588.36 16.00Q588.36 16.24 588.41 16.30L588.41 16.30Q588.10 16.28 587.96 16.19Q587.82 16.10 587.74 16.00Q587.66 15.89 587.60 15.79Q587.54 15.68 587.41 15.62L587.41 15.62Q587.31 15.58 587.24 15.43Q587.17 15.27 587.12 15.09Q587.08 14.90 587.05 14.70Q587.02 14.50 587.02 14.38ZM599.26 16.24L599.26 16.24Q598.46 16.00 598.18 15.79Q597.90 15.57 597.90 15.19L597.90 15.19Q597.90 14.77 598.09 14.01Q598.29 13.24 598.60 12.31Q598.92 11.37 599.33 10.35Q599.73 9.32 600.15 8.39Q600.57 7.45 600.97 6.67Q601.37 5.89 601.68 5.46L601.68 5.46L601.58 4.87Q601.78 4.87 602.13 4.97Q602.48 5.07 602.83 5.21Q603.19 5.35 603.46 5.49Q603.74 5.64 603.76 5.74L603.76 5.74Q603.69 6.08 603.65 6.76Q603.61 7.43 603.61 8.20L603.61 8.20Q603.61 9.73 603.73 11.19Q603.85 12.66 604.28 14.17L604.28 14.17Q604.51 13.05 604.76 11.94Q605.02 10.82 605.30 9.81Q605.58 8.79 605.86 7.92Q606.14 7.06 606.40 6.40Q606.66 5.75 606.89 5.38Q607.11 5.01 607.29 4.98L607.29 4.98Q607.45 5.01 607.63 5.10Q607.81 5.19 607.98 5.32Q608.15 5.45 608.29 5.60Q608.43 5.75 608.51 5.91L608.51 5.91Q608.06 6.09 607.62 6.76Q607.18 7.43 606.78 8.39Q606.38 9.35 606.04 10.47Q605.70 11.59 605.44 12.68Q605.18 13.76 605.03 14.69Q604.88 15.61 604.87 16.17L604.87 16.17Q604.87 16.20 604.88 16.21L604.88 16.21Q604.84 16.23 604.79 16.23Q604.74 16.23 604.70 16.23L604.70 16.23Q604.06 16.23 603.56 16.07Q603.06 15.90 602.91 15.61L602.91 15.61Q602.62 14.43 602.42 13.34Q602.22 12.25 602.09 11.16Q601.96 10.07 601.88 8.95Q601.80 7.84 601.76 6.62L601.76 6.62Q601.50 7.04 601.20 7.72Q600.91 8.40 600.63 9.21Q600.35 10.02 600.09 10.92Q599.83 11.82 599.63 12.67Q599.44 13.52 599.33 14.29Q599.21 15.05 599.21 15.61L599.21 15.61Q599.21 15.90 599.22 16.03Q599.23 16.16 599.26 16.24ZM622.33 10.72L622.33 10.72Q622.69 10.72 622.90 10.98Q623.11 11.23 623.11 11.68L623.11 11.68Q623.11 11.79 623.10 11.91Q623.08 12.03 623.06 12.11L623.06 12.11Q622.76 12.04 622.41 12.03L622.41 12.03Q622.33 12.64 621.96 13.32Q621.60 14 621.08 14.60Q620.56 15.19 619.95 15.64Q619.33 16.09 618.73 16.24L618.73 16.24Q616.85 16.20 615.99 15.27Q615.13 14.34 615.13 12.36L615.13 12.36Q615.13 10.92 615.66 9.57Q616.20 8.22 617.08 7.17Q617.96 6.12 619.10 5.48Q620.24 4.84 621.47 4.84L621.47 4.84Q622.44 4.84 622.98 5.25Q623.52 5.66 623.52 6.40L623.52 6.40Q623.52 6.89 623.29 7.31Q623.06 7.73 622.52 8.22L622.52 8.22Q622.20 8.12 621.96 7.88Q621.73 7.63 621.67 7.31L621.67 7.31Q622.15 6.96 622.34 6.66Q622.54 6.37 622.54 5.96L622.54 5.96Q622.54 5.32 621.77 5.32L621.77 5.32Q621.14 5.32 620.42 5.79Q619.70 6.26 618.97 7.14L618.97 7.14Q617.93 8.39 617.46 9.71Q616.98 11.03 616.98 12.68L616.98 12.68Q616.98 13.30 617.11 13.80Q617.23 14.31 617.44 14.69Q617.65 15.06 617.94 15.29Q618.23 15.51 618.56 15.54L618.56 15.54Q619.01 15.44 619.46 15.09Q619.91 14.73 620.28 14.25Q620.65 13.76 620.91 13.21Q621.17 12.66 621.22 12.15L621.22 12.15Q620.83 12.24 620.47 12.31Q620.12 12.39 619.79 12.39L619.79 12.39Q619.37 12.39 619.06 12.18Q618.74 11.97 618.63 11.61L618.63 11.61Q618.88 11.47 619.37 11.31Q619.85 11.16 620.40 11.03Q620.94 10.89 621.47 10.81Q621.99 10.72 622.33 10.72ZM631.26 12.54L631.26 12.54Q631.26 12.17 631.46 11.45Q631.67 10.72 631.99 9.85Q632.31 8.97 632.72 8.04Q633.12 7.11 633.53 6.30Q633.95 5.49 634.33 4.89Q634.70 4.30 634.98 4.10L634.98 4.10Q635.21 4.14 635.47 4.30Q635.73 4.47 635.95 4.67Q636.17 4.87 636.34 5.10Q636.51 5.32 636.54 5.49L636.54 5.49Q635.82 6.08 635.12 6.95Q634.42 7.83 633.83 8.89Q633.23 9.95 632.79 11.16Q632.34 12.38 632.11 13.64L632.11 13.64Q631.95 13.59 631.78 13.53Q631.62 13.47 631.51 13.36Q631.40 13.24 631.33 13.05Q631.26 12.85 631.26 12.54ZM630.95 16.25L630.95 16.25Q630.78 16.25 630.63 16.18Q630.48 16.10 630.36 16.00Q630.24 15.89 630.17 15.77Q630.10 15.65 630.10 15.58L630.10 15.58Q630.10 15.41 630.14 15.15Q630.18 14.88 630.27 14.64Q630.35 14.39 630.48 14.22Q630.60 14.04 630.76 14.04L630.76 14.04Q631.15 14.04 631.55 14.31Q631.95 14.59 632.14 14.92L632.14 14.92Q631.97 15.11 631.85 15.34Q631.72 15.57 631.60 15.77Q631.47 15.97 631.32 16.11Q631.16 16.25 630.95 16.25Z"></path></g></svg>