<svg xmlns="http://www.w3.org/2000/svg" xmlns:xlink="http://www.w3.org/1999/xlink" width="500" zoomAndPan="magnify" viewBox="0 0 375 374.999991" height="500" preserveAspectRatio="xMidYMid meet" version="1.0"><defs><clipPath id="3f46a9365f"><path d="M 23.078125 111 L 129 111 L 129 218 L 23.078125 218 Z M 23.078125 111 " clip-rule="nonzero"/></clipPath><clipPath id="5e8535d88f"><path d="M 245 111 L 351.578125 111 L 351.578125 218 L 245 218 Z M 245 111 " clip-rule="nonzero"/></clipPath></defs><rect x="-37.5" width="450" fill="#ffffff" y="-37.499999" height="449.999989" fill-opacity="1"/><rect x="-37.5" width="450" fill="#ff4500" y="-37.499999" height="449.999989" fill-opacity="1"/><path fill="#ffffff" d="M 129.121094 168.015625 C 129.953125 167.96875 130.777344 167.890625 131.617188 167.890625 C 132.554688 167.890625 133.46875 167.972656 134.390625 168.03125 C 134.316406 166.894531 134.214844 165.765625 134.214844 164.609375 C 134.214844 162.058594 134.453125 159.5625 134.804688 157.105469 C 133.742188 157.039062 132.691406 156.941406 131.613281 156.941406 C 130.628906 156.941406 129.664062 157.035156 128.691406 157.089844 C 129.039062 159.550781 129.285156 162.046875 129.285156 164.605469 C 129.292969 165.753906 129.195312 166.882812 129.121094 168.015625 Z M 129.121094 168.015625 " fill-opacity="1" fill-rule="nonzero"/><path fill="#ffffff" d="M 117.925781 170.21875 C 118.171875 168.378906 118.34375 166.511719 118.34375 164.605469 C 118.34375 162.628906 118.15625 160.703125 117.894531 158.800781 C 96.308594 164.589844 80.152344 183.621094 78.679688 206.636719 C 82.578125 206.40625 86.328125 205.65625 89.878906 204.4375 C 92.019531 188.472656 103.097656 175.332031 117.925781 170.21875 Z M 117.925781 170.21875 " fill-opacity="1" fill-rule="nonzero"/><path fill="#ffffff" d="M 131.617188 252.207031 C 110.34375 252.207031 92.75 236.355469 89.910156 215.851562 C 86.433594 216.78125 82.824219 217.363281 79.109375 217.566406 C 82.78125 243.292969 104.894531 263.15625 131.617188 263.15625 C 158.347656 263.15625 180.464844 243.285156 184.136719 217.554688 C 180.421875 217.328125 176.816406 216.738281 173.34375 215.785156 C 170.53125 236.324219 152.917969 252.207031 131.617188 252.207031 Z M 131.617188 252.207031 " fill-opacity="1" fill-rule="nonzero"/><path fill="#ffffff" d="M 145.605469 158.867188 C 145.351562 160.75 145.167969 162.65625 145.167969 164.605469 C 145.167969 166.550781 145.351562 168.449219 145.601562 170.320312 C 160.246094 175.496094 171.1875 188.515625 173.34375 204.332031 C 176.890625 205.585938 180.648438 206.367188 184.554688 206.625 C 183.082031 183.707031 167.054688 164.738281 145.605469 158.867188 Z M 145.605469 158.867188 " fill-opacity="1" fill-rule="nonzero"/><path fill="#24ae5f" d="M 229.101562 169.976562 C 229.324219 168.214844 229.484375 166.429688 229.484375 164.605469 C 229.484375 162.578125 229.292969 160.597656 229.011719 158.648438 C 207.128906 164.246094 190.683594 183.429688 189.210938 206.671875 C 193.085938 206.5 196.832031 205.832031 200.367188 204.675781 C 202.460938 188.367188 213.875 174.949219 229.101562 169.976562 Z M 229.101562 169.976562 " fill-opacity="1" fill-rule="nonzero"/><path fill="#24ae5f" d="M 256.78125 170.5625 C 271.027344 175.863281 281.632812 188.625 283.835938 204.089844 C 287.386719 205.410156 291.15625 206.277344 295.082031 206.59375 C 293.609375 183.898438 277.867188 165.070312 256.722656 159.019531 C 256.476562 160.855469 256.304688 162.707031 256.304688 164.605469 C 256.3125 166.632812 256.503906 168.609375 256.78125 170.5625 Z M 256.78125 170.5625 " fill-opacity="1" fill-rule="nonzero"/><path fill="#24ae5f" d="M 242.148438 252.207031 C 220.925781 252.207031 203.367188 236.433594 200.460938 216.003906 C 196.972656 216.898438 193.359375 217.4375 189.644531 217.597656 C 193.328125 243.308594 215.4375 263.15625 242.152344 263.15625 C 268.894531 263.15625 291.023438 243.269531 294.675781 217.523438 C 290.964844 217.257812 287.359375 216.625 283.902344 215.632812 C 281.148438 236.242188 263.496094 252.207031 242.148438 252.207031 Z M 242.148438 252.207031 " fill-opacity="1" fill-rule="nonzero"/><path fill="#24ae5f" d="M 240.265625 167.984375 C 240.894531 167.957031 241.511719 167.890625 242.148438 167.890625 C 243.292969 167.890625 244.414062 167.972656 245.539062 168.058594 C 245.460938 166.910156 245.363281 165.773438 245.363281 164.605469 C 245.363281 162.058594 245.601562 159.578125 245.953125 157.132812 C 244.695312 157.042969 243.433594 156.941406 242.152344 156.941406 C 241.371094 156.941406 240.613281 157.023438 239.84375 157.054688 C 240.199219 159.53125 240.445312 162.039062 240.445312 164.605469 C 240.433594 165.746094 240.335938 166.863281 240.265625 167.984375 Z M 240.265625 167.984375 " fill-opacity="1" fill-rule="nonzero"/><path fill="#0096e6" d="M 129.121094 168.015625 C 125.222656 168.246094 121.472656 168.996094 117.925781 170.21875 C 115.789062 186.183594 104.703125 199.324219 89.878906 204.4375 C 89.632812 206.277344 89.460938 208.144531 89.460938 210.046875 C 89.460938 212.023438 89.648438 213.953125 89.910156 215.851562 C 111.488281 210.066406 127.648438 191.035156 129.121094 168.015625 Z M 129.121094 168.015625 " fill-opacity="1" fill-rule="nonzero"/><g clip-path="url(#3f46a9365f)"><path fill="#0096e6" d="M 78.6875 206.636719 C 77.855469 206.6875 77.027344 206.761719 76.183594 206.761719 C 52.9375 206.761719 34.027344 187.851562 34.027344 164.605469 C 34.027344 141.359375 52.9375 122.449219 76.183594 122.449219 C 97.460938 122.449219 115.050781 138.296875 117.894531 158.800781 C 121.371094 157.871094 124.976562 157.292969 128.695312 157.089844 C 125.019531 131.363281 102.90625 111.5 76.183594 111.5 C 46.898438 111.5 23.078125 135.324219 23.078125 164.605469 C 23.078125 193.886719 46.902344 217.714844 76.183594 217.714844 C 77.171875 217.714844 78.132812 217.621094 79.109375 217.566406 C 78.757812 215.101562 78.511719 212.605469 78.511719 210.046875 C 78.511719 208.898438 78.609375 207.769531 78.6875 206.636719 Z M 78.6875 206.636719 " fill-opacity="1" fill-rule="nonzero"/></g><path fill="#ffffff" d="M 89.460938 210.046875 C 89.460938 208.144531 89.632812 206.277344 89.878906 204.4375 C 86.335938 205.65625 82.578125 206.40625 78.679688 206.636719 C 78.609375 207.769531 78.503906 208.898438 78.503906 210.046875 C 78.503906 212.605469 78.753906 215.101562 79.101562 217.566406 C 82.820312 217.363281 86.429688 216.78125 89.90625 215.851562 C 89.648438 213.945312 89.460938 212.019531 89.460938 210.046875 Z M 89.460938 210.046875 " fill-opacity="1" fill-rule="nonzero"/><path fill="#0096e6" d="M 118.34375 164.605469 C 118.34375 166.511719 118.171875 168.378906 117.925781 170.21875 C 121.46875 168.996094 125.222656 168.246094 129.121094 168.015625 C 129.195312 166.882812 129.296875 165.753906 129.296875 164.605469 C 129.296875 162.050781 129.050781 159.550781 128.699219 157.089844 C 124.984375 157.292969 121.375 157.871094 117.898438 158.800781 C 118.160156 160.707031 118.34375 162.632812 118.34375 164.605469 Z M 118.34375 164.605469 " fill-opacity="1" fill-rule="nonzero"/><path fill="#ffa500" d="M 187.328125 122.449219 C 208.546875 122.449219 226.105469 138.222656 229.011719 158.648438 C 232.5 157.757812 236.113281 157.214844 239.832031 157.054688 C 236.148438 131.34375 214.039062 111.5 187.328125 111.5 C 160.597656 111.5 138.480469 131.367188 134.8125 157.097656 C 138.523438 157.324219 142.128906 157.914062 145.601562 158.867188 C 148.421875 138.332031 166.027344 122.449219 187.328125 122.449219 Z M 187.328125 122.449219 " fill-opacity="1" fill-rule="nonzero"/><path fill="#ffa500" d="M 240.265625 167.984375 C 236.386719 168.152344 232.644531 168.820312 229.105469 169.976562 C 227.019531 186.285156 215.605469 199.707031 200.375 204.675781 C 200.148438 206.441406 199.992188 208.226562 199.992188 210.046875 C 199.992188 212.074219 200.183594 214.054688 200.460938 216.003906 C 222.34375 210.402344 238.792969 191.226562 240.265625 167.984375 Z M 240.265625 167.984375 " fill-opacity="1" fill-rule="nonzero"/><path fill="#ffa500" d="M 189.210938 206.671875 C 188.582031 206.699219 187.960938 206.761719 187.328125 206.761719 C 186.390625 206.761719 185.476562 206.679688 184.554688 206.621094 C 184.628906 207.757812 184.730469 208.886719 184.730469 210.042969 C 184.730469 212.59375 184.492188 215.089844 184.140625 217.550781 C 185.203125 217.613281 186.253906 217.714844 187.332031 217.714844 C 188.117188 217.714844 188.871094 217.632812 189.644531 217.597656 C 189.285156 215.125 189.039062 212.617188 189.039062 210.046875 C 189.035156 208.910156 189.140625 207.792969 189.210938 206.671875 Z M 189.210938 206.671875 " fill-opacity="1" fill-rule="nonzero"/><path fill="#ffa500" d="M 145.601562 170.320312 C 142.054688 169.066406 138.296875 168.285156 134.390625 168.027344 C 135.863281 190.945312 151.894531 209.910156 173.339844 215.78125 C 173.59375 213.898438 173.777344 211.992188 173.777344 210.042969 C 173.777344 208.097656 173.59375 206.199219 173.34375 204.328125 C 158.699219 199.160156 147.757812 186.140625 145.601562 170.320312 Z M 145.601562 170.320312 " fill-opacity="1" fill-rule="nonzero"/><path fill="#ffa500" d="M 184.554688 206.625 C 180.648438 206.367188 176.890625 205.585938 173.34375 204.332031 C 173.601562 206.203125 173.777344 208.105469 173.777344 210.046875 C 173.777344 211.996094 173.59375 213.902344 173.339844 215.785156 C 176.808594 216.738281 180.417969 217.328125 184.128906 217.554688 C 184.480469 215.097656 184.722656 212.605469 184.722656 210.046875 C 184.726562 208.894531 184.628906 207.757812 184.554688 206.625 Z M 184.554688 206.625 " fill-opacity="1" fill-rule="nonzero"/><path fill="#ffffff" d="M 134.390625 168.027344 C 138.296875 168.285156 142.054688 169.066406 145.601562 170.320312 C 145.34375 168.449219 145.167969 166.550781 145.167969 164.605469 C 145.167969 162.65625 145.351562 160.75 145.605469 158.867188 C 142.136719 157.914062 138.527344 157.324219 134.816406 157.097656 C 134.464844 159.558594 134.226562 162.050781 134.226562 164.605469 C 134.21875 165.761719 134.316406 166.894531 134.390625 168.027344 Z M 134.390625 168.027344 " fill-opacity="1" fill-rule="nonzero"/><path fill="#24ae5f" d="M 199.984375 210.046875 C 199.984375 208.226562 200.136719 206.441406 200.367188 204.675781 C 196.832031 205.832031 193.085938 206.5 189.210938 206.671875 C 189.140625 207.792969 189.039062 208.910156 189.039062 210.046875 C 189.039062 212.617188 189.285156 215.125 189.644531 217.597656 C 193.367188 217.4375 196.980469 216.898438 200.460938 216.003906 C 200.183594 214.050781 199.984375 212.074219 199.984375 210.046875 Z M 199.984375 210.046875 " fill-opacity="1" fill-rule="nonzero"/><path fill="#ffa500" d="M 229.484375 164.605469 C 229.484375 166.429688 229.332031 168.214844 229.101562 169.976562 C 232.636719 168.820312 236.382812 168.152344 240.257812 167.984375 C 240.332031 166.863281 240.429688 165.746094 240.429688 164.605469 C 240.429688 162.039062 240.183594 159.53125 239.828125 157.054688 C 236.105469 157.214844 232.488281 157.757812 229.007812 158.648438 C 229.292969 160.601562 229.484375 162.578125 229.484375 164.605469 Z M 229.484375 164.605469 " fill-opacity="1" fill-rule="nonzero"/><g clip-path="url(#5e8535d88f)"><path fill="#a020f0" d="M 298.46875 111.5 C 271.730469 111.5 249.597656 131.382812 245.949219 157.132812 C 249.660156 157.394531 253.261719 158.03125 256.722656 159.019531 C 259.472656 138.414062 277.117188 122.449219 298.46875 122.449219 C 321.714844 122.449219 340.625 141.359375 340.625 164.605469 C 340.625 187.851562 321.714844 206.761719 298.46875 206.761719 C 297.324219 206.761719 296.203125 206.679688 295.082031 206.59375 C 295.15625 207.742188 295.253906 208.882812 295.253906 210.046875 C 295.253906 212.59375 295.015625 215.074219 294.664062 217.523438 C 295.921875 217.609375 297.183594 217.714844 298.464844 217.714844 C 327.75 217.714844 351.570312 193.886719 351.570312 164.605469 C 351.570312 135.324219 327.75 111.5 298.46875 111.5 Z M 298.46875 111.5 " fill-opacity="1" fill-rule="nonzero"/></g><path fill="#a020f0" d="M 256.78125 170.5625 C 253.230469 169.242188 249.460938 168.378906 245.539062 168.058594 C 247.011719 190.753906 262.75 209.582031 283.894531 215.632812 C 284.140625 213.796875 284.3125 211.949219 284.3125 210.046875 C 284.3125 208.023438 284.121094 206.046875 283.839844 204.089844 C 269.589844 198.792969 258.984375 186.03125 256.78125 170.5625 Z M 256.78125 170.5625 " fill-opacity="1" fill-rule="nonzero"/><path fill="#a020f0" d="M 295.082031 206.59375 C 291.15625 206.28125 287.386719 205.417969 283.835938 204.089844 C 284.113281 206.039062 284.304688 208.023438 284.304688 210.046875 C 284.304688 211.949219 284.136719 213.796875 283.890625 215.632812 C 287.351562 216.625 290.953125 217.257812 294.664062 217.523438 C 295.007812 215.074219 295.253906 212.589844 295.253906 210.046875 C 295.253906 208.882812 295.15625 207.742188 295.082031 206.59375 Z M 295.082031 206.59375 " fill-opacity="1" fill-rule="nonzero"/><path fill="#24ae5f" d="M 245.539062 168.058594 C 249.460938 168.371094 253.230469 169.238281 256.78125 170.5625 C 256.503906 168.609375 256.3125 166.632812 256.3125 164.605469 C 256.3125 162.707031 256.480469 160.855469 256.726562 159.019531 C 253.269531 158.03125 249.664062 157.394531 245.953125 157.132812 C 245.609375 159.578125 245.363281 162.066406 245.363281 164.605469 C 245.363281 165.773438 245.460938 166.910156 245.539062 168.058594 Z M 245.539062 168.058594 " fill-opacity="1" fill-rule="nonzero"/></svg>